<svg version="1.1" xmlns="http://www.w3.org/2000/svg" viewBox="0 0 1860.6265365060046 995" width="1860.6265365060046" height="995">
  <!-- svg-source:excalidraw -->
  
  <defs>
    <style class="style-fonts">
      @font-face {
        font-family: "Virgil";
        src: url("https://excalidraw.com/Virgil.woff2");
      }
      @font-face {
        font-family: "Cascadia";
        src: url("https://excalidraw.com/Cascadia.woff2");
      }
      @font-face {
        font-family: "Assistant";
        src: url("https://excalidraw.com/Assistant-Regular.woff2");
      }
    </style>
    
  </defs>
  <rect x="0" y="0" width="1860.6265365060046" height="995" fill="#ffffff"></rect><g stroke-linecap="round" transform="translate(396.81598816766405 10) rotate(0 268.5 487.5)"><path d="M32 0 C186.61 0.13, 340.07 0.13, 505 0 M32 0 C209.64 1.29, 387.5 1.78, 505 0 M505 0 C525.85 0.66, 536.89 12.24, 537 32 M505 0 C524.09 0.24, 537.37 11.24, 537 32 M537 32 C540.16 379.38, 539.27 727.74, 537 943 M537 32 C539.03 319.17, 539.49 607.31, 537 943 M537 943 C538.44 964.18, 525.17 976.24, 505 975 M537 943 C536.56 966.47, 526.67 975.78, 505 975 M505 975 C375.14 974.14, 245.58 973.8, 32 975 M505 975 C351.26 973.56, 197.16 973.67, 32 975 M32 975 C11.15 973.53, 1.05 965.3, 0 943 M32 975 C12.17 974.02, 0.56 962.71, 0 943 M0 943 C-1.93 604.79, -2.21 265.72, 0 32 M0 943 C-3.7 581.1, -3.64 218.77, 0 32 M0 32 C1.01 8.91, 11.12 -0.04, 32 0 M0 32 C0.16 10.04, 8.95 0.33, 32 0" stroke="#1e1e1e" stroke-width="2" fill="none"></path></g><g transform="translate(401.81598816766405 15) rotate(0 57.12994384765625 12.5)"><text x="0" y="0" font-family="Virgil, Segoe UI Emoji" font-size="20px" fill="#1e1e1e" text-anchor="start" style="white-space: pre;" direction="ltr" dominant-baseline="text-before-edge">k8s cluster</text></g><g stroke-linecap="round" transform="translate(1241.815988167664 77) rotate(0 116.5 79.5)"><path d="M32 0 C73.71 -2.35, 110.12 -3.26, 201 0 C224.04 1, 231.47 12.97, 233 32 C235.94 54.41, 233.7 82.06, 233 127 C229.91 147.94, 219.56 160.1, 201 159 C137.8 160.62, 67.74 157.45, 32 159 C9.06 156.6, -1.7 147.06, 0 127 C-1.98 95.99, -1.69 73.61, 0 32 C1.39 7.38, 7.17 0.69, 32 0" stroke="none" stroke-width="0" fill="#ffec99"></path><path d="M32 0 C84.61 1.63, 137.8 -0.1, 201 0 M32 0 C75.79 -1.77, 118.79 -1.7, 201 0 M201 0 C223.8 -0.56, 231.02 11.22, 233 32 M201 0 C222.35 -1.69, 231.76 9.12, 233 32 M233 32 C230.87 70.32, 232 104.61, 233 127 M233 32 C233.97 62.61, 234.46 93.73, 233 127 M233 127 C231.98 149.89, 221.66 159.66, 201 159 M233 127 C233.47 148.23, 223.39 157.43, 201 159 M201 159 C145.33 161.33, 90.16 160.07, 32 159 M201 159 C145.26 160.16, 88.94 159.62, 32 159 M32 159 C10.17 159.7, -0.33 147.29, 0 127 M32 159 C12.53 159.75, -0.3 146.79, 0 127 M0 127 C0.79 104.26, 1.87 78.74, 0 32 M0 127 C1.17 94.65, 1.34 63.6, 0 32 M0 32 C1.35 10.63, 10.63 -0.81, 32 0 M0 32 C0.72 10.29, 12.91 -0.77, 32 0" stroke="#1e1e1e" stroke-width="2" fill="none"></path></g><g transform="translate(1256.906076058289 144) rotate(0 101.409912109375 12.5)"><text x="101.409912109375" y="0" font-family="Virgil, Segoe UI Emoji" font-size="20px" fill="#1e1e1e" text-anchor="middle" style="white-space: pre;" direction="ltr" dominant-baseline="text-before-edge">azure table storage</text></g><g stroke-linecap="round" transform="translate(452.81598816766405 53) rotate(0 219 273)"><path d="M32 0 C178.5 1.74, 326.39 1.45, 406 0 C430.64 2.68, 434.46 7.18, 438 32 C436.88 218.64, 435.6 404.5, 438 514 C436.5 538.11, 428.86 546.05, 406 546 C301.15 547.46, 196.82 549.09, 32 546 C9.41 545.23, 3.06 534.94, 0 514 C-4.23 403.12, -3.14 288.12, 0 32 C-1.75 8.59, 10 0.92, 32 0" stroke="none" stroke-width="0" fill="#b2f2bb"></path><path d="M32 0 C127.35 -0.41, 221.82 -1.41, 406 0 M32 0 C178.21 -1.12, 325.82 -0.82, 406 0 M406 0 C425.44 -1.12, 437.55 9.41, 438 32 M406 0 C427.48 0.76, 438.92 9.57, 438 32 M438 32 C437.17 192.04, 436.22 353.74, 438 514 M438 32 C439.1 215.74, 439.35 400.04, 438 514 M438 514 C438.67 533.67, 429.12 544.09, 406 546 M438 514 C437.85 536.31, 427.26 545.68, 406 546 M406 546 C301.09 547.33, 195.98 546.98, 32 546 M406 546 C306.58 544.8, 207.4 545.06, 32 546 M32 546 C12.26 547.68, 1.71 535.24, 0 514 M32 546 C9.12 544.08, 1.14 536.77, 0 514 M0 514 C1.93 358.7, 1.87 204.6, 0 32 M0 514 C-0.86 335.34, -0.75 156.23, 0 32 M0 32 C1.98 11.43, 9.79 -1.87, 32 0 M0 32 C1.68 9.07, 11.37 -2.07, 32 0" stroke="#1e1e1e" stroke-width="2" fill="none"></path></g><g transform="translate(457.81598816766405 58) rotate(0 127.12987518310547 12.5)"><text x="0" y="0" font-family="Virgil, Segoe UI Emoji" font-size="20px" fill="#1e1e1e" text-anchor="start" style="white-space: pre;" direction="ltr" dominant-baseline="text-before-edge">ws-proxy (orleans cluster)</text></g><g stroke-linecap="round" transform="translate(1346.815988167664 554) rotate(0 125.5 76.5)"><path d="M32 0 C99.49 0.9, 176.21 3.34, 219 0 C241.57 -0.05, 249.72 10.51, 251 32 C252.62 52.9, 253.33 71.47, 251 121 C248.67 140.41, 240.75 154.86, 219 153 C179.5 153.28, 133.75 158.33, 32 153 C9.18 153.07, -3.13 143.67, 0 121 C-1.39 92.35, -2.9 60.48, 0 32 C-0.45 9.6, 12.26 -0.63, 32 0" stroke="none" stroke-width="0" fill="#a5d8ff"></path><path d="M32 0 C104.43 -1.29, 180.01 -0.91, 219 0 M32 0 C79.22 0.25, 129 -0.66, 219 0 M219 0 C239.03 -1.75, 250.59 10.32, 251 32 M219 0 C242.31 0.52, 248.75 8.57, 251 32 M251 32 C250.44 64.53, 250.13 99.02, 251 121 M251 32 C250.65 49.88, 250.12 69.77, 251 121 M251 121 C249.72 143.5, 241.65 153.42, 219 153 M251 121 C251.32 144.37, 241.8 152.2, 219 153 M219 153 C168.29 153.85, 113.62 155.36, 32 153 M219 153 C149.73 153.67, 79.93 152.74, 32 153 M32 153 C11.49 153.29, 1.76 144.03, 0 121 M32 153 C11.17 152.32, -0.32 141.85, 0 121 M0 121 C-1.93 86.77, -1.7 53.07, 0 32 M0 121 C0.14 97.82, 0.21 73.94, 0 32 M0 32 C1.53 12.42, 12.22 0.78, 32 0 M0 32 C0.46 11.07, 9.14 -2.13, 32 0" stroke="#1e1e1e" stroke-width="2" fill="none"></path></g><g transform="translate(1426.486039742371 618) rotate(0 45.82994842529297 12.5)"><text x="45.82994842529297" y="0" font-family="Virgil, Segoe UI Emoji" font-size="20px" fill="#1e1e1e" text-anchor="middle" style="white-space: pre;" direction="ltr" dominant-baseline="text-before-edge">ws-server</text></g><g stroke-linecap="round" transform="translate(467.81598816766405 796.5) rotate(0 185 73)"><path d="M32 0 C101.32 5.27, 175.04 3.85, 338 0 C358.51 -1, 370.77 9.56, 370 32 C368.75 50.82, 365.29 76.06, 370 114 C371.71 133.77, 359.56 149.24, 338 146 C264.68 144.82, 192.38 143.31, 32 146 C10.93 143.97, 2.24 131.78, 0 114 C0.53 87.63, -1.29 64.37, 0 32 C3.48 12.21, 10.38 -1.8, 32 0" stroke="none" stroke-width="0" fill="#ffc9c9"></path><path d="M32 0 C115.26 0.72, 197.43 0.59, 338 0 M32 0 C132.9 1.64, 232.51 1.53, 338 0 M338 0 C359.25 0.33, 370.68 10.55, 370 32 M338 0 C359.76 -0.04, 368.46 11.44, 370 32 M370 32 C368.61 60.95, 370.62 86.01, 370 114 M370 32 C368.33 57.1, 369.02 79.55, 370 114 M370 114 C370.82 134.14, 357.46 147.32, 338 146 M370 114 C371.98 136.01, 359.89 146.85, 338 146 M338 146 C269.87 143.63, 202.17 144.97, 32 146 M338 146 C233.08 146.99, 128.99 145.9, 32 146 M32 146 C9.07 144.56, -1.04 136.84, 0 114 M32 146 C11.73 145.35, -1.31 135.37, 0 114 M0 114 C-0.08 87.98, -0.48 66.82, 0 32 M0 114 C0.58 96.28, 0.6 80.88, 0 32 M0 32 C-1.46 10.77, 12.34 -0.38, 32 0 M0 32 C-1.69 11.67, 12.87 -1.63, 32 0" stroke="#1e1e1e" stroke-width="2" fill="none"></path></g><g transform="translate(582.3660675133672 857) rotate(0 70.44992065429688 12.5)"><text x="70.44992065429688" y="0" font-family="Virgil, Segoe UI Emoji" font-size="20px" fill="#1e1e1e" text-anchor="middle" style="white-space: pre;" direction="ltr" dominant-baseline="text-before-edge">ws-proxy-client</text></g><g stroke-linecap="round" transform="translate(530.815988167664 101) rotate(0 151.5 65)"><path d="M32 0 C114.6 -4.4, 201.89 -4.64, 271 0 C294.81 -1.23, 302.4 8.95, 303 32 C301.85 51.57, 304.76 62.08, 303 98 C300.89 118.69, 293.29 130.78, 271 130 C214.24 127.16, 152.7 128.13, 32 130 C11.34 132.57, 2.61 117.83, 0 98 C2.59 81.93, -0.07 70.71, 0 32 C-3.36 10.91, 14.11 -0.46, 32 0" stroke="none" stroke-width="0" fill="#ffffff"></path><path d="M32 0 C85.37 1.68, 141.68 -0.49, 271 0 M32 0 C121.96 2.07, 213.58 2.53, 271 0 M271 0 C290.55 1.54, 303.77 10.83, 303 32 M271 0 C291.72 1.4, 303.86 11.98, 303 32 M303 32 C304.88 46.26, 301.62 59.27, 303 98 M303 32 C302.38 50.4, 302.51 68.94, 303 98 M303 98 C304.18 120.41, 292.69 128.42, 271 130 M303 98 C303.78 117.6, 291.9 131.64, 271 130 M271 130 C197.15 129.54, 119.09 127.5, 32 130 M271 130 C218.22 127.97, 166.5 128.39, 32 130 M32 130 C12.35 130.58, 0.55 118.35, 0 98 M32 130 C11.32 129.66, 2.05 118.16, 0 98 M0 98 C-0.7 76.96, -0.01 57.56, 0 32 M0 98 C-1.05 81.44, 0.48 63.99, 0 32 M0 32 C0.76 9.15, 10.72 -0.55, 32 0 M0 32 C-2.27 9.44, 11.55 2.27, 32 0" stroke="#1e1e1e" stroke-width="2" fill="none"></path></g><g transform="translate(535.815988167664 106) rotate(0 23.499977111816406 12.5)"><text x="0" y="0" font-family="Virgil, Segoe UI Emoji" font-size="20px" fill="#1e1e1e" text-anchor="start" style="white-space: pre;" direction="ltr" dominant-baseline="text-before-edge">silo 1</text></g><g stroke-linecap="round" transform="translate(558.315988167664 359) rotate(0 139.5 65)"><path d="M32 0 C89.77 -0.45, 152.63 -2.46, 247 0 C270.67 1.07, 276.23 12.43, 279 32 C278.49 58.2, 277.69 83.26, 279 98 C279.16 122.3, 268 127.71, 247 130 C170.25 127.5, 97.86 130.11, 32 130 C12.96 133.51, 0.63 117.74, 0 98 C0.5 75.6, -2.42 45.31, 0 32 C-2.41 11.95, 9.92 0.49, 32 0" stroke="none" stroke-width="0" fill="#ffffff"></path><path d="M32 0 C111.3 0.64, 188.45 1.99, 247 0 M32 0 C100.77 1.32, 167.14 0.7, 247 0 M247 0 C266.66 -0.52, 279.86 11.56, 279 32 M247 0 C270.11 1.2, 277.19 9.72, 279 32 M279 32 C278.52 52.52, 279.02 74.05, 279 98 M279 32 C278.5 58.52, 278.83 84.77, 279 98 M279 98 C280.48 118.2, 266.41 130.18, 247 130 M279 98 C280.14 119.53, 268.84 129.01, 247 130 M247 130 C196.7 129.61, 145.24 127.36, 32 130 M247 130 C188.07 129.48, 127.48 128.95, 32 130 M32 130 C10.85 129.46, -0.82 117.39, 0 98 M32 130 C12.24 130.33, 1.94 118.17, 0 98 M0 98 C-1 75.74, -0.94 55.47, 0 32 M0 98 C0.05 78.49, -0.42 60.72, 0 32 M0 32 C0.87 12.42, 8.82 -1.32, 32 0 M0 32 C2.02 10.33, 10.44 1.98, 32 0" stroke="#1e1e1e" stroke-width="2" fill="none"></path></g><g transform="translate(563.315988167664 364) rotate(0 27.90997314453125 12.5)"><text x="0" y="0" font-family="Virgil, Segoe UI Emoji" font-size="20px" fill="#1e1e1e" text-anchor="start" style="white-space: pre;" direction="ltr" dominant-baseline="text-before-edge">silo 2</text></g><g mask="url(#mask-7bF7u23NT4nLJ4BjgVA1f)" stroke-linecap="round"><g transform="translate(441.81598816766405 299.8692564615967) rotate(0 -215.5 -1.4346282307983529)"><path d="M0.18 -1.07 C-71.59 -1.58, -359.18 -3.38, -430.91 -3.64 M-1.18 0.98 C-73.08 0.66, -360.25 -2.15, -431.82 -2.51" stroke="#1e1e1e" stroke-width="2" fill="none"></path></g><g transform="translate(441.81598816766405 299.8692564615967) rotate(0 -215.5 -1.4346282307983529)"><path d="M-23.36 7.33 C-18.6 5.12, -11.61 3.96, 0.18 -1.07 M-23.36 7.33 C-16.17 5.37, -7.39 2.12, 0.18 -1.07" stroke="#1e1e1e" stroke-width="2" fill="none"></path></g><g transform="translate(441.81598816766405 299.8692564615967) rotate(0 -215.5 -1.4346282307983529)"><path d="M-23.26 -9.77 C-18.61 -7.26, -11.64 -3.7, 0.18 -1.07 M-23.26 -9.77 C-16.21 -6.3, -7.46 -4.12, 0.18 -1.07" stroke="#1e1e1e" stroke-width="2" fill="none"></path></g></g><mask id="mask-7bF7u23NT4nLJ4BjgVA1f"><rect x="0" y="0" fill="#fff" width="972.815988167664" height="402.7385129231934"></rect><rect x="136.59606324090623" y="273.43462823079835" fill="#000" width="179.43984985351562" height="50" opacity="1"></rect></mask><g transform="translate(136.59606324090623 273.43462823079835) rotate(0 89.40365184568338 25.102968913610113)"><text x="89.71992492675781" y="0" font-family="Virgil, Segoe UI Emoji" font-size="20px" fill="#1e1e1e" text-anchor="middle" style="white-space: pre;" direction="ltr" dominant-baseline="text-before-edge">HTTP, 5223</text><text x="89.71992492675781" y="25" font-family="Virgil, Segoe UI Emoji" font-size="20px" fill="#1e1e1e" text-anchor="middle" style="white-space: pre;" direction="ltr" dominant-baseline="text-before-edge">orleans dashboard</text></g><g mask="url(#mask-8kJPbSB43jKtSjOtOfLNL)" stroke-linecap="round"><g transform="translate(460.81598816766405 879.9427687035234) rotate(0 -199.5 0.02861564823831486)"><path d="M0.29 -0.26 C-66.18 -0.01, -331.23 0.56, -397.83 0.64 M-1.02 -1.44 C-67.64 -1.47, -331.63 -1.68, -398.17 -1.18" stroke="#1e1e1e" stroke-width="2" fill="none"></path></g><g transform="translate(460.81598816766405 879.9427687035234) rotate(0 -199.5 0.02861564823831486)"><path d="M-23.18 8.35 C-14.52 6.93, -4.08 1.19, 0.29 -0.26 M-23.18 8.35 C-16.01 5.69, -9.02 2.5, 0.29 -0.26" stroke="#1e1e1e" stroke-width="2" fill="none"></path></g><g transform="translate(460.81598816766405 879.9427687035234) rotate(0 -199.5 0.02861564823831486)"><path d="M-23.22 -8.75 C-14.67 -3.59, -4.22 -2.75, 0.29 -0.26 M-23.22 -8.75 C-15.88 -6.11, -8.88 -3.99, 0.29 -0.26" stroke="#1e1e1e" stroke-width="2" fill="none"></path></g></g><mask id="mask-8kJPbSB43jKtSjOtOfLNL"><rect x="0" y="0" fill="#fff" width="959.815988167664" height="980"></rect><rect x="196.246034249207" y="854.9713843517616" fill="#000" width="130.13990783691406" height="50" opacity="1"></rect></mask><g transform="translate(196.246034249207 854.9713843517616) rotate(0 65.63251467846794 24.53378816443444)"><text x="65.06995391845703" y="0" font-family="Virgil, Segoe UI Emoji" font-size="20px" fill="#1e1e1e" text-anchor="middle" style="white-space: pre;" direction="ltr" dominant-baseline="text-before-edge">HTTP, 8082</text><text x="65.06995391845703" y="25" font-family="Virgil, Segoe UI Emoji" font-size="20px" fill="#1e1e1e" text-anchor="middle" style="white-space: pre;" direction="ltr" dominant-baseline="text-before-edge">swagger</text></g><g mask="url(#mask-67tTeOfccwQrDrK4z1WL-)" stroke-linecap="round"><g transform="translate(600.8999021579675 236.80493682429096) rotate(0 30.795319383776473 50.868402566616965)"><path d="M-0.02 -0.97 C10.3 15.97, 50.95 85.21, 61.21 102.2 M-1.49 1.13 C8.71 17.66, 49.68 83.53, 60.07 100.32" stroke="#1e1e1e" stroke-width="2" fill="none"></path></g><g transform="translate(600.8999021579675 236.80493682429096) rotate(0 30.795319383776473 50.868402566616965)"><path d="M40.41 84.86 C43.57 87.94, 50.67 92.24, 60.07 100.32 M40.41 84.86 C45.11 88.98, 49.72 91.09, 60.07 100.32" stroke="#1e1e1e" stroke-width="2" fill="none"></path></g><g transform="translate(600.8999021579675 236.80493682429096) rotate(0 30.795319383776473 50.868402566616965)"><path d="M54.95 75.85 C54.66 81.08, 58.28 87.55, 60.07 100.32 M54.95 75.85 C56.15 82.19, 57.35 86.41, 60.07 100.32" stroke="#1e1e1e" stroke-width="2" fill="none"></path></g></g><mask id="mask-67tTeOfccwQrDrK4z1WL-"><rect x="0" y="0" fill="#fff" width="762.4905409255205" height="438.5417419575249"></rect><rect x="610.6052404626423" y="262.6733393909079" fill="#000" width="42.179962158203125" height="50" opacity="1"></rect></mask><g transform="translate(610.6052404626423 262.6733393909079) rotate(0 20.157384164710606 24.743046584725363)"><text x="21.089981079101562" y="0" font-family="Virgil, Segoe UI Emoji" font-size="20px" fill="#1e1e1e" text-anchor="middle" style="white-space: pre;" direction="ltr" dominant-baseline="text-before-edge">(b)</text><text x="21.089981079101562" y="25" font-family="Virgil, Segoe UI Emoji" font-size="20px" fill="#1e1e1e" text-anchor="middle" style="white-space: pre;" direction="ltr" dominant-baseline="text-before-edge">TCP</text></g><g mask="url(#mask-_gRyfy67v9ptf9YQmmyY8)" stroke-linecap="round"><g transform="translate(774.0334990493607 352.58847291917095) rotate(0 -30.290283535574645 -49.29423645958548)"><path d="M1.17 0.81 C-9.16 -15.59, -51.07 -81.97, -61.33 -98.53 M0.33 0.19 C-9.67 -15.98, -48.79 -80.73, -59.01 -96.96" stroke="#1e1e1e" stroke-width="2" fill="none"></path></g><g transform="translate(774.0334990493607 352.58847291917095) rotate(0 -30.290283535574645 -49.29423645958548)"><path d="M-39.42 -81.43 C-44.99 -87.99, -53.17 -91.89, -59.01 -96.96 M-39.42 -81.43 C-44.59 -86.77, -51.18 -91.26, -59.01 -96.96" stroke="#1e1e1e" stroke-width="2" fill="none"></path></g><g transform="translate(774.0334990493607 352.58847291917095) rotate(0 -30.290283535574645 -49.29423645958548)"><path d="M-53.98 -72.47 C-54.38 -82.34, -57.41 -89.42, -59.01 -96.96 M-53.98 -72.47 C-54.64 -80.42, -56.78 -87.65, -59.01 -96.96" stroke="#1e1e1e" stroke-width="2" fill="none"></path></g></g><mask id="mask-_gRyfy67v9ptf9YQmmyY8"><rect x="0" y="0" fill="#fff" width="934.61406612051" height="551.1769458383419"></rect><rect x="717.6532344346845" y="290.7942364595855" fill="#000" width="52.179962158203125" height="25" opacity="1"></rect></mask><g transform="translate(717.6532344346842 290.7942364595855) rotate(0 26.300203242897965 12.93406861722471)"><text x="26.089981079101562" y="0" font-family="Virgil, Segoe UI Emoji" font-size="20px" fill="#1e1e1e" text-anchor="middle" style="white-space: pre;" direction="ltr" dominant-baseline="text-before-edge">TCP </text></g><g mask="url(#mask-Gxr1YNs2fVVsxkliXD9d6)" stroke-linecap="round"><g transform="translate(836.815988167664 147.39164988923812) rotate(0 201 -12.4888300293064)"><path d="M0.63 0.33 C67.3 -3.99, 334.23 -20.7, 401.09 -25.02 M-0.5 -0.54 C66.45 -4.74, 336.43 -19.49, 403.33 -23.5" stroke="#1e1e1e" stroke-width="2" fill="none"></path></g><g transform="translate(836.815988167664 147.39164988923812) rotate(0 201 -12.4888300293064)"><path d="M380.36 -13.63 C389.78 -19.11, 398.11 -21.78, 403.33 -23.5 M380.36 -13.63 C385.32 -16.21, 392.33 -18.94, 403.33 -23.5" stroke="#1e1e1e" stroke-width="2" fill="none"></path></g><g transform="translate(836.815988167664 147.39164988923812) rotate(0 201 -12.4888300293064)"><path d="M379.39 -30.7 C389.32 -29.53, 398.03 -25.56, 403.33 -23.5 M379.39 -30.7 C384.69 -29.03, 391.95 -27.52, 403.33 -23.5" stroke="#1e1e1e" stroke-width="2" fill="none"></path></g></g><mask id="mask-Gxr1YNs2fVVsxkliXD9d6"><rect x="0" y="0" fill="#fff" width="1338.815988167664" height="272.3693099478509"></rect><rect x="971.3360305870974" y="109.9028198599317" fill="#000" width="132.9599151611328" height="50" opacity="1"></rect></mask><g transform="translate(971.3360305870974 109.9028198599317) rotate(0 66.89698781133632 25.14449760019781)"><text x="66.4799575805664" y="0" font-family="Virgil, Segoe UI Emoji" font-size="20px" fill="#1e1e1e" text-anchor="middle" style="white-space: pre;" direction="ltr" dominant-baseline="text-before-edge">HTTP, 10022</text><text x="66.4799575805664" y="25" font-family="Virgil, Segoe UI Emoji" font-size="20px" fill="#1e1e1e" text-anchor="middle" style="white-space: pre;" direction="ltr" dominant-baseline="text-before-edge">clustering</text></g><g mask="url(#mask-3JNtjn6Ps6p2FQtHsn1h3)" stroke-linecap="round"><g transform="translate(838.315988167664 387.48658784136865) rotate(0 199.25000000000023 -91.77939967712359)"><path d="M0.99 -1.06 C67.5 -31.46, 332.81 -152.42, 399.16 -183.03 M0.05 1 C66.45 -29.71, 332.13 -154.04, 398.56 -184.88" stroke="#1e1e1e" stroke-width="2" fill="none"></path></g><g transform="translate(838.315988167664 387.48658784136865) rotate(0 199.25000000000023 -91.77939967712359)"><path d="M380.88 -167.2 C384.67 -171.71, 392.79 -177.26, 398.56 -184.88 M380.88 -167.2 C384.27 -171.71, 386.89 -175.21, 398.56 -184.88" stroke="#1e1e1e" stroke-width="2" fill="none"></path></g><g transform="translate(838.315988167664 387.48658784136865) rotate(0 199.25000000000023 -91.77939967712359)"><path d="M373.66 -182.7 C379.6 -182.48, 389.95 -183.23, 398.56 -184.88 M373.66 -182.7 C378.62 -184.06, 382.7 -184.43, 398.56 -184.88" stroke="#1e1e1e" stroke-width="2" fill="none"></path></g></g><mask id="mask-3JNtjn6Ps6p2FQtHsn1h3"><rect x="0" y="0" fill="#fff" width="1336.8159881676645" height="671.0453871956158"></rect><rect x="971.0860305870979" y="270.70718816424505" fill="#000" width="132.9599151611328" height="50" opacity="1"></rect></mask><g transform="translate(971.0860305870979 270.70718816424505) rotate(0 66.8369199542002 24.83728858246468)"><text x="66.4799575805664" y="0" font-family="Virgil, Segoe UI Emoji" font-size="20px" fill="#1e1e1e" text-anchor="middle" style="white-space: pre;" direction="ltr" dominant-baseline="text-before-edge">HTTP, 10022</text><text x="66.4799575805664" y="25" font-family="Virgil, Segoe UI Emoji" font-size="20px" fill="#1e1e1e" text-anchor="middle" style="white-space: pre;" direction="ltr" dominant-baseline="text-before-edge">clustering</text></g><g mask="url(#mask-JNhNVQQp-RIYxu-GS7HNS)" stroke-linecap="round"><g transform="translate(482.99571112479794 788) rotate(0 -11.028761449235617 -66.49999999999989)"><path d="M-0.35 0.11 C-4.12 -22.03, -19.29 -110.68, -22.95 -132.99 M1.66 -0.87 C-1.69 -22.8, -16.56 -109.45, -20.71 -131.45" stroke="#1e1e1e" stroke-width="2" fill="none"></path></g><g transform="translate(482.99571112479794 788) rotate(0 -11.028761449235617 -66.49999999999989)"><path d="M-8.16 -109.83 C-11.32 -117.16, -14.87 -121.9, -20.71 -131.45 M-8.16 -109.83 C-11.57 -115.12, -14.87 -120.36, -20.71 -131.45" stroke="#1e1e1e" stroke-width="2" fill="none"></path></g><g transform="translate(482.99571112479794 788) rotate(0 -11.028761449235617 -66.49999999999989)"><path d="M-25 -106.82 C-23.63 -114.92, -22.65 -120.47, -20.71 -131.45 M-25 -106.82 C-24.46 -112.81, -23.8 -118.76, -20.71 -131.45" stroke="#1e1e1e" stroke-width="2" fill="none"></path></g></g><mask id="mask-JNhNVQQp-RIYxu-GS7HNS"><rect x="0" y="0" fill="#fff" width="605.0532340232692" height="1020.9999999999998"></rect><rect x="443.7669756155037" y="709" fill="#000" width="56.39994812011719" height="25" opacity="1"></rect></mask><g transform="translate(443.7669756155037 709.0000000000002) rotate(0 28.585455543179933 12.560073962807621)"><text x="28.199974060058594" y="0" font-family="Virgil, Segoe UI Emoji" font-size="20px" fill="#1e1e1e" text-anchor="middle" style="white-space: pre;" direction="ltr" dominant-baseline="text-before-edge">HTTP</text></g><g stroke-linecap="round" transform="translate(737.815988167664 411) rotate(0 31.5 31)"><path d="M45.04 2.7 C50.87 5.12, 58.41 12.12, 61.08 18.27 C63.74 24.41, 63.28 33.04, 61.02 39.59 C58.76 46.14, 53.3 53.71, 47.54 57.56 C41.78 61.41, 33.11 63.78, 26.46 62.68 C19.81 61.58, 12.04 55.88, 7.65 50.97 C3.26 46.06, 0.45 39.53, 0.12 33.22 C-0.21 26.92, 1.55 18.46, 5.65 13.14 C9.74 7.81, 17.05 2.32, 24.68 1.26 C32.31 0.2, 46.26 4.76, 51.44 6.76 C56.62 8.77, 55.91 12.83, 55.74 13.31 M29.55 0.76 C36.15 0.54, 46.48 4.04, 51.72 7.81 C56.95 11.58, 59.77 17.1, 60.94 23.39 C62.12 29.68, 61.8 39.35, 58.76 45.56 C55.71 51.77, 48.99 58.33, 42.67 60.65 C36.35 62.97, 26.96 61.92, 20.81 59.49 C14.66 57.05, 9.03 51.75, 5.79 46.04 C2.55 40.33, 0.47 31.47, 1.34 25.23 C2.22 18.99, 5.98 12.73, 11.03 8.58 C16.09 4.44, 28.58 1.47, 31.67 0.36 C34.76 -0.75, 29.72 1.37, 29.57 1.92" stroke="none" stroke-width="0" fill="#ffec99"></path><path d="M36.05 0.79 C42.41 1.3, 49.97 5.65, 54.36 10.44 C58.74 15.23, 62.1 22.99, 62.35 29.52 C62.61 36.05, 60.07 44.44, 55.9 49.63 C51.72 54.82, 43.68 59.35, 37.3 60.66 C30.93 61.96, 23.44 60.47, 17.65 57.46 C11.85 54.45, 5.28 48.51, 2.53 42.58 C-0.21 36.65, -0.9 28.09, 1.16 21.88 C3.23 15.66, 8.12 8.56, 14.93 5.31 C21.73 2.06, 36.35 2.35, 42.01 2.37 C47.67 2.39, 48.97 4.92, 48.89 5.42 M21.73 0.77 C27.65 -1.18, 36.96 -0.45, 43.28 2.12 C49.6 4.69, 56.38 10.32, 59.65 16.2 C62.91 22.08, 64.32 30.54, 62.85 37.39 C61.39 44.23, 56.6 53.02, 50.86 57.25 C45.12 61.48, 35.1 63.68, 28.4 62.77 C21.7 61.86, 15.2 56.61, 10.65 51.81 C6.11 47.01, 1.95 40.38, 1.13 33.97 C0.3 27.55, 2.22 18.67, 5.69 13.31 C9.16 7.94, 19.15 3.78, 21.93 1.78 C24.72 -0.22, 22.17 0.87, 22.4 1.32" stroke="#1e1e1e" stroke-width="2" fill="none"></path></g><g transform="translate(756.0821331052098 429.5796897832171) rotate(0 13.459991455078125 12.5)"><text x="13.459991455078125" y="0" font-family="Virgil, Segoe UI Emoji" font-size="20px" fill="#1e1e1e" text-anchor="middle" style="white-space: pre;" direction="ltr" dominant-baseline="text-before-edge">J2</text></g><g stroke-linecap="round" transform="translate(574.815988167664 390) rotate(0 29.5 32)"><path d="M34.11 0.67 C40.23 1.23, 48.2 5.16, 52.31 10.22 C56.41 15.29, 58.83 24.16, 58.73 31.05 C58.62 37.95, 55.63 46.23, 51.67 51.57 C47.71 56.91, 40.86 61.58, 34.96 63.07 C29.06 64.57, 21.91 63.83, 16.27 60.55 C10.64 57.27, 3.47 49.99, 1.15 43.4 C-1.18 36.8, 0.08 27.34, 2.33 20.99 C4.58 14.63, 7.95 8.3, 14.63 5.27 C21.3 2.25, 36.92 2.39, 42.39 2.83 C47.86 3.28, 47.85 7.53, 47.45 7.95 M25.45 0.17 C31.32 -1.02, 39.33 0.59, 44.61 4.42 C49.9 8.25, 55.25 16.36, 57.15 23.16 C59.06 29.97, 58.25 39.14, 56.05 45.23 C53.84 51.32, 49.22 56.69, 43.9 59.7 C38.58 62.71, 30.22 64.65, 24.12 63.29 C18.02 61.93, 11.11 56.92, 7.3 51.55 C3.49 46.18, 1.19 37.9, 1.24 31.08 C1.28 24.27, 3.3 15.96, 7.55 10.64 C11.81 5.32, 23.74 0.95, 26.76 -0.86 C29.78 -2.66, 25.77 -0.84, 25.68 -0.18" stroke="none" stroke-width="0" fill="#ffec99"></path><path d="M34.57 -0.42 C40.46 0.29, 47.42 5.86, 51.6 11.38 C55.79 16.91, 59.64 25.98, 59.68 32.74 C59.73 39.5, 56.19 46.84, 51.86 51.95 C47.53 57.05, 39.75 61.99, 33.7 63.35 C27.65 64.71, 20.77 63.53, 15.55 60.13 C10.34 56.72, 4.79 49.39, 2.43 42.9 C0.08 36.41, -0.6 27.67, 1.45 21.17 C3.49 14.66, 7.99 6.89, 14.69 3.86 C21.4 0.84, 36.21 2.5, 41.68 3.01 C47.14 3.52, 47.7 6.52, 47.48 6.9 M19.93 2.15 C25.76 -0.15, 34.86 -0.12, 40.54 2.5 C46.23 5.11, 50.86 11.74, 54.03 17.83 C57.2 23.92, 60.41 32.41, 59.56 39.05 C58.71 45.68, 54.09 53.47, 48.94 57.62 C43.78 61.77, 35.32 64.04, 28.64 63.93 C21.95 63.82, 13.67 61.55, 8.82 56.97 C3.97 52.4, 0.35 43.35, -0.47 36.48 C-1.28 29.61, 0.59 21.49, 3.96 15.76 C7.32 10.03, 17.01 4.13, 19.71 2.09 C22.42 0.06, 19.97 3.08, 20.17 3.56" stroke="#1e1e1e" stroke-width="2" fill="none"></path></g><g transform="translate(592.3763439210006 409.3725830020305) rotate(0 12.079994201660156 12.5)"><text x="12.079994201660156" y="0" font-family="Virgil, Segoe UI Emoji" font-size="20px" fill="#1e1e1e" text-anchor="middle" style="white-space: pre;" direction="ltr" dominant-baseline="text-before-edge">L9</text></g><g stroke-linecap="round" transform="translate(575.315988167664 138) rotate(0 30.5 29.5)"><path d="M26.81 -0.44 C33.02 -1.42, 42.4 1.89, 47.94 5.64 C53.47 9.39, 58.21 16.01, 60.03 22.07 C61.85 28.13, 61.75 36.22, 58.86 41.98 C55.98 47.74, 48.82 54.03, 42.71 56.61 C36.61 59.2, 28.44 59.04, 22.23 57.49 C16.02 55.93, 9.24 52.19, 5.47 47.27 C1.69 42.35, -1.06 34.49, -0.41 27.96 C0.24 21.43, 3.99 12.74, 9.36 8.1 C14.73 3.47, 27.49 1.43, 31.81 0.15 C36.13 -1.12, 35.49 -0.01, 35.27 0.47 M28.3 -0.52 C34.37 -1.54, 41.47 0.22, 46.92 3.8 C52.36 7.38, 59.26 14.63, 60.99 20.94 C62.72 27.25, 59.99 35.6, 57.32 41.65 C54.65 47.7, 50.93 54.45, 44.98 57.24 C39.03 60.03, 28.14 59.99, 21.62 58.4 C15.11 56.81, 9.58 52.7, 5.9 47.71 C2.22 42.72, -0.68 34.98, -0.46 28.46 C-0.24 21.94, 2.32 13.36, 7.22 8.56 C12.12 3.76, 25.74 1.07, 28.93 -0.36 C32.11 -1.78, 26.45 -0.49, 26.33 0.01" stroke="none" stroke-width="0" fill="#ffec99"></path><path d="M42.72 2.83 C48.73 4.55, 54.56 9.58, 57.46 14.98 C60.35 20.38, 61.53 28.97, 60.07 35.24 C58.6 41.51, 53.85 48.76, 48.66 52.6 C43.46 56.45, 35.36 58.53, 28.89 58.3 C22.42 58.07, 14.68 55.43, 9.83 51.21 C4.98 47, 0.7 39.19, -0.2 33.03 C-1.1 26.87, 0.93 19.41, 4.43 14.25 C7.93 9.09, 14.06 3.98, 20.79 2.07 C27.52 0.15, 40.48 2.29, 44.81 2.75 C49.13 3.22, 46.92 4.35, 46.74 4.87 M42.7 3.51 C48.3 5.55, 53.83 10.66, 56.56 16.14 C59.3 21.63, 60.46 30.23, 59.11 36.44 C57.76 42.65, 53.55 49.75, 48.46 53.38 C43.37 57.02, 35.09 58.54, 28.59 58.26 C22.09 57.98, 14.35 55.85, 9.47 51.71 C4.59 47.57, -0.11 39.91, -0.68 33.42 C-1.26 26.92, 2.12 17.96, 6.01 12.74 C9.9 7.53, 16.45 4.06, 22.66 2.15 C28.86 0.24, 40.12 1.23, 43.26 1.28 C46.4 1.33, 41.64 1.76, 41.49 2.43" stroke="#1e1e1e" stroke-width="2" fill="none"></path></g><g transform="translate(594.1792392760447 155.14034995499685) rotate(0 11.569992065429688 12.5)"><text x="11.569992065429688" y="0" font-family="Virgil, Segoe UI Emoji" font-size="20px" fill="#1e1e1e" text-anchor="middle" style="white-space: pre;" direction="ltr" dominant-baseline="text-before-edge">V4</text></g><g stroke-linecap="round" transform="translate(651.315988167664 129) rotate(0 30.5 29.5)"><path d="M30.87 -0.96 C37.17 -0.91, 46.67 3.56, 51.61 8.02 C56.54 12.49, 59.73 19.64, 60.47 25.84 C61.21 32.05, 59.52 39.9, 56.03 45.24 C52.54 50.59, 45.84 56.03, 39.53 57.89 C33.22 59.76, 24.13 58.92, 18.19 56.44 C12.24 53.96, 6.76 48.62, 3.84 43.01 C0.91 37.39, -0.7 28.8, 0.64 22.76 C1.98 16.71, 6.25 10.62, 11.9 6.73 C17.55 2.84, 30.22 0.31, 34.51 -0.58 C38.81 -1.48, 37.71 0.78, 37.68 1.38 M27.86 1.2 C33.93 0.44, 43.96 2.46, 49.55 5.87 C55.14 9.27, 60.17 15.66, 61.4 21.61 C62.63 27.57, 59.99 35.72, 56.93 41.58 C53.87 47.43, 49.01 54.05, 43.02 56.74 C37.03 59.43, 27.51 59.32, 20.98 57.71 C14.46 56.1, 7.45 52.52, 3.88 47.09 C0.31 41.66, -1.4 31.57, -0.42 25.13 C0.55 18.7, 4.93 12.8, 9.71 8.48 C14.49 4.16, 25 0.61, 28.26 -0.8 C31.53 -2.21, 28.97 -0.83, 29.31 0.03" stroke="none" stroke-width="0" fill="#ffec99"></path><path d="M34.95 0.88 C40.94 1.43, 49 5.08, 53.32 9.97 C57.64 14.86, 60.85 23.64, 60.86 30.2 C60.87 36.76, 57.45 44.71, 53.37 49.33 C49.28 53.94, 42.62 56.92, 36.36 57.9 C30.1 58.88, 21.46 58.32, 15.79 55.21 C10.11 52.09, 4.76 45.15, 2.31 39.2 C-0.14 33.24, -1.03 25.4, 1.09 19.49 C3.2 13.58, 8.51 6.62, 15.02 3.75 C21.54 0.89, 35.2 2.3, 40.18 2.32 C45.17 2.35, 45.13 3.42, 44.92 3.91 M26.07 1.68 C32.04 0.24, 38.54 1.02, 44.06 4.08 C49.58 7.14, 56.74 13.99, 59.18 20.05 C61.63 26.1, 61.17 34.66, 58.74 40.4 C56.32 46.15, 49.92 51.57, 44.63 54.52 C39.35 57.47, 33.46 59.19, 27.05 58.11 C20.64 57.02, 10.63 52.8, 6.19 48.02 C1.75 43.24, 0.47 35.59, 0.41 29.44 C0.36 23.28, 1.85 15.74, 5.86 11.08 C9.87 6.41, 21.51 2.9, 24.49 1.45 C27.46 0.01, 23.34 1.82, 23.71 2.4" stroke="#1e1e1e" stroke-width="2" fill="none"></path></g><g transform="translate(668.2992420226267 146.14034995499685) rotate(0 13.449989318847656 12.5)"><text x="13.449989318847656" y="0" font-family="Virgil, Segoe UI Emoji" font-size="20px" fill="#1e1e1e" text-anchor="middle" style="white-space: pre;" direction="ltr" dominant-baseline="text-before-edge">B5</text></g><g stroke-linecap="round" transform="translate(736.315988167664 139) rotate(0 29.5 32)"><path d="M15.38 4.25 C20.32 0.77, 29.08 -0.56, 35.23 0.83 C41.38 2.22, 48.48 7.3, 52.29 12.6 C56.09 17.9, 58.16 25.91, 58.06 32.64 C57.97 39.37, 55.78 47.93, 51.71 53 C47.64 58.06, 39.9 61.93, 33.64 63.04 C27.37 64.14, 19.45 63.28, 14.12 59.62 C8.78 55.97, 3.52 47.7, 1.64 41.12 C-0.24 34.55, 0.2 26.55, 2.83 20.17 C5.47 13.79, 14.8 5.59, 17.43 2.87 C20.07 0.15, 18.46 3.45, 18.63 3.85 M41.8 1.23 C47.24 3.1, 51.93 9.55, 54.76 15.82 C57.6 22.09, 60.14 31.94, 58.82 38.84 C57.51 45.74, 52.15 52.78, 46.9 57.21 C41.64 61.63, 33.61 65.78, 27.31 65.39 C21.01 65, 13.58 59.6, 9.09 54.85 C4.6 50.09, 1.24 43.65, 0.39 36.87 C-0.46 30.09, 0.58 20.14, 4 14.15 C7.42 8.17, 14.61 2.68, 20.94 0.94 C27.26 -0.8, 38.53 3.62, 41.96 3.72 C45.39 3.82, 42.03 1.39, 41.51 1.54" stroke="none" stroke-width="0" fill="#ffec99"></path><path d="M35.82 1.51 C41.76 2.77, 48.49 8.25, 52.43 13.47 C56.38 18.69, 59.62 26.11, 59.5 32.83 C59.38 39.56, 56 48.74, 51.71 53.82 C47.42 58.9, 40.22 62.45, 33.74 63.31 C27.26 64.18, 18.28 62.66, 12.85 59 C7.41 55.33, 3.02 47.79, 1.14 41.33 C-0.73 34.87, -0.81 26.62, 1.58 20.24 C3.98 13.87, 9.65 6.12, 15.5 3.07 C21.35 0.03, 32.83 2.2, 36.67 1.97 C40.51 1.74, 38.54 1.17, 38.55 1.7 M40.83 3.37 C46.67 5.6, 52.39 12.42, 55.06 18.27 C57.74 24.11, 57.89 32.03, 56.88 38.45 C55.88 44.88, 53.98 52.67, 49.03 56.8 C44.07 60.94, 33.64 63.51, 27.14 63.25 C20.65 63, 14.72 59.7, 10.07 55.25 C5.42 50.8, 0.21 43.13, -0.77 36.56 C-1.74 30, 0.87 21.48, 4.21 15.86 C7.55 10.23, 12.98 4.82, 19.28 2.82 C25.57 0.82, 38.51 3.93, 41.98 3.86 C45.44 3.8, 40.47 2.11, 40.08 2.42" stroke="#1e1e1e" stroke-width="2" fill="none"></path></g><g transform="translate(756.8063442261764 158.37258300203047) rotate(0 9.149993896484375 12.5)"><text x="9.149993896484375" y="0" font-family="Virgil, Segoe UI Emoji" font-size="20px" fill="#1e1e1e" text-anchor="middle" style="white-space: pre;" direction="ltr" dominant-baseline="text-before-edge">C1</text></g><g mask="url(#mask-vjDa8Hnh53DZ_ZnZM14WE)" stroke-linecap="round"><g transform="translate(775.4779383281752 786.5) rotate(0 -77.12656386297192 -140.75)"><path d="M0.74 -1 C-25.32 -48.16, -129.58 -235.64, -155.42 -282.39 M-0.33 1.09 C-26.12 -46, -127.53 -234.44, -153.32 -281.32" stroke="#1e1e1e" stroke-width="2" fill="none"></path></g><g transform="translate(775.4779383281752 786.5) rotate(0 -77.12656386297192 -140.75)"><path d="M-18.14 -17.39 C-12.58 -13.24, -5.23 -5.15, 0.74 -1 M-18.14 -17.39 C-13.23 -11.79, -7.88 -7.04, 0.74 -1" stroke="#1e1e1e" stroke-width="2" fill="none"></path></g><g transform="translate(775.4779383281752 786.5) rotate(0 -77.12656386297192 -140.75)"><path d="M-3.18 -25.69 C-3.25 -18.31, -1.57 -7.07, 0.74 -1 M-3.18 -25.69 C-2.79 -17.5, -1.92 -10.28, 0.74 -1" stroke="#1e1e1e" stroke-width="2" fill="none"></path></g><g transform="translate(775.4779383281752 786.5) rotate(0 -77.12656386297192 -140.75)"><path d="M-134.59 -264.76 C-143.44 -272.86, -150.35 -277.26, -153.32 -281.32 M-134.59 -264.76 C-140.76 -268.77, -146.66 -273.88, -153.32 -281.32" stroke="#1e1e1e" stroke-width="2" fill="none"></path></g><g transform="translate(775.4779383281752 786.5) rotate(0 -77.12656386297192 -140.75)"><path d="M-149.62 -256.59 C-152.81 -267.89, -154.02 -275.37, -153.32 -281.32 M-149.62 -256.59 C-151.24 -263.14, -152.65 -270.7, -153.32 -281.32" stroke="#1e1e1e" stroke-width="2" fill="none"></path></g></g><mask id="mask-vjDa8Hnh53DZ_ZnZM14WE"><rect x="0" y="0" fill="#fff" width="1029.731066054119" height="1168"></rect><rect x="684.8113811790706" y="633.25" fill="#000" width="27.079986572265625" height="25" opacity="1"></rect></mask><g transform="translate(684.8113811790706 633.25) rotate(0 13.326454195380165 12.59866661101114)"><text x="13.539993286132812" y="0" font-family="Virgil, Segoe UI Emoji" font-size="20px" fill="#1e1e1e" text-anchor="middle" style="white-space: pre;" direction="ltr" dominant-baseline="text-before-edge">WS</text></g><g mask="url(#mask-TtHinGmbL5-QrIE0elqX7)" stroke-linecap="round"><g transform="translate(803.6115453082687 453.5822276939448) rotate(0 269.6022214296977 81.88472693882835)"><path d="M-0.82 -1.01 C89.04 26.46, 449.95 136.17, 540.01 163.81 M0.95 1.08 C90.64 28.84, 449.82 138.38, 539.49 165.37" stroke="#1e1e1e" stroke-width="2" fill="none"></path></g><g transform="translate(803.6115453082687 453.5822276939448) rotate(0 269.6022214296977 81.88472693882835)"><path d="M24.15 -2.34 C13.14 -0.67, 5.58 -0.98, -0.82 -1.01 M24.15 -2.34 C14.98 -1, 4.49 -2.03, -0.82 -1.01" stroke="#1e1e1e" stroke-width="2" fill="none"></path></g><g transform="translate(803.6115453082687 453.5822276939448) rotate(0 269.6022214296977 81.88472693882835)"><path d="M19.16 14.01 C10.16 9.62, 4.45 3.22, -0.82 -1.01 M19.16 14.01 C11.77 9.08, 3.2 1.75, -0.82 -1.01" stroke="#1e1e1e" stroke-width="2" fill="none"></path></g><g transform="translate(803.6115453082687 453.5822276939448) rotate(0 269.6022214296977 81.88472693882835)"><path d="M514.53 166.73 C522.16 167.74, 533.22 166.43, 539.49 165.37 M514.53 166.73 C524.58 167.27, 533.32 165.21, 539.49 165.37" stroke="#1e1e1e" stroke-width="2" fill="none"></path></g><g transform="translate(803.6115453082687 453.5822276939448) rotate(0 269.6022214296977 81.88472693882835)"><path d="M519.49 150.36 C525.14 157.44, 534.34 162.23, 539.49 165.37 M519.49 150.36 C527.78 157.19, 534.61 161.44, 539.49 165.37" stroke="#1e1e1e" stroke-width="2" fill="none"></path></g></g><mask id="mask-TtHinGmbL5-QrIE0elqX7"><rect x="0" y="0" fill="#fff" width="1442.815988167664" height="717.3516815716015"></rect><rect x="1026.0437838278103" y="522.9669546327732" fill="#000" width="94.3399658203125" height="25" opacity="1"></rect></mask><g transform="translate(1026.0437838278103 522.9669546327732) rotate(0 47.16452859342098 12.793571297372637)"><text x="47.16998291015625" y="0" font-family="Virgil, Segoe UI Emoji" font-size="20px" fill="#1e1e1e" text-anchor="middle" style="white-space: pre;" direction="ltr" dominant-baseline="text-before-edge">WS, 10010</text></g><g mask="url(#mask-kMkJGayWNk502T1sPxjC5)" stroke-linecap="round"><g transform="translate(1481.815988167664 166.3424889297495) rotate(0 183.5 1.8287555351252536)"><path d="M-1.1 -0.08 C59.93 0.28, 305.18 2.08, 366.41 2.54 M0.52 -1.17 C61.94 -0.73, 307.43 2.71, 368.81 3.5" stroke="#1e1e1e" stroke-width="2" fill="none"></path></g><g transform="translate(1481.815988167664 166.3424889297495) rotate(0 183.5 1.8287555351252536)"><path d="M22.45 -8.46 C14.9 -7.02, 5.74 -4.57, -1.1 -0.08 M22.45 -8.46 C17.04 -6.42, 12.72 -4.99, -1.1 -0.08" stroke="#1e1e1e" stroke-width="2" fill="none"></path></g><g transform="translate(1481.815988167664 166.3424889297495) rotate(0 183.5 1.8287555351252536)"><path d="M22.33 8.64 C14.77 4.68, 5.64 1.73, -1.1 -0.08 M22.33 8.64 C16.92 6.88, 12.63 4.51, -1.1 -0.08" stroke="#1e1e1e" stroke-width="2" fill="none"></path></g></g><mask id="mask-kMkJGayWNk502T1sPxjC5"><rect x="0" y="0" fill="#fff" width="1948.815988167664" height="270"></rect><rect x="1598.8360305870974" y="155.6712444648748" fill="#000" width="132.9599151611328" height="25" opacity="1"></rect></mask><g transform="translate(1598.8360305870974 155.6712444648747) rotate(0 66.83304846661622 11.836747302366433)"><text x="66.4799575805664" y="0" font-family="Virgil, Segoe UI Emoji" font-size="20px" fill="#1e1e1e" text-anchor="middle" style="white-space: pre;" direction="ltr" dominant-baseline="text-before-edge">HTTP, 10022</text></g><g stroke-linecap="round" transform="translate(413.81598816766405 574) rotate(0 73.5 35.5)"><path d="M17.75 0 C56.96 -2.04, 99.55 -1.97, 129.25 0 C138 2.42, 145.37 6.29, 147 17.75 C145.28 25.81, 146.84 36.81, 147 53.25 C144.04 68.27, 141.32 68.34, 129.25 71 C100.88 71.67, 66.58 71.74, 17.75 71 C8.89 70.9, -2.81 66.2, 0 53.25 C-2.4 44.01, 3.15 41.29, 0 17.75 C2.49 2.85, 6.36 3.18, 17.75 0" stroke="none" stroke-width="0" fill="#69db7c"></path><path d="M17.75 0 C41.16 -1.8, 63.33 -1.28, 129.25 0 M17.75 0 C54.53 0.82, 90.19 0.64, 129.25 0 M129.25 0 C142.46 1.75, 148.77 5.94, 147 17.75 M129.25 0 C141.81 -1.22, 146.13 4.01, 147 17.75 M147 17.75 C146.54 27.67, 147.47 38.62, 147 53.25 M147 17.75 C147.88 27.91, 147.48 35.37, 147 53.25 M147 53.25 C147.7 65.71, 141.05 72.24, 129.25 71 M147 53.25 C148.84 67, 140.71 71.35, 129.25 71 M129.25 71 C97.97 72.8, 66.83 70.38, 17.75 71 M129.25 71 C89.49 69.58, 50.72 71.2, 17.75 71 M17.75 71 C6.45 70.52, 1 64.01, 0 53.25 M17.75 71 C7.19 70.74, 0.74 66.3, 0 53.25 M0 53.25 C-1.7 45.14, -0.2 33.61, 0 17.75 M0 53.25 C-0.38 43.29, -0.04 32.5, 0 17.75 M0 17.75 C-0.57 7.74, 5.76 -1.27, 17.75 0 M0 17.75 C-1.38 8, 6.78 -1.45, 17.75 0" stroke="#1e1e1e" stroke-width="2" fill="none"></path></g><g transform="translate(437.08603821649217 584.5) rotate(0 50.229949951171875 25)"><text x="50.229949951171875" y="0" font-family="Virgil, Segoe UI Emoji" font-size="20px" fill="#1e1e1e" text-anchor="middle" style="white-space: pre;" direction="ltr" dominant-baseline="text-before-edge">ClusterIP,</text><text x="50.229949951171875" y="25" font-family="Virgil, Segoe UI Emoji" font-size="20px" fill="#1e1e1e" text-anchor="middle" style="white-space: pre;" direction="ltr" dominant-baseline="text-before-edge">8081</text></g><g mask="url(#mask-j0y_hjaVfs8wL-g7BOJFL)" stroke-linecap="round"><g transform="translate(478.7892437828689 567) rotate(0 36.01337219239758 -35.1487855706423)"><path d="M-0.15 -0.51 C11.7 -12.19, 60.14 -57.95, 72.14 -69.71 M-1.69 -1.82 C9.93 -13.88, 59.14 -60.14, 71.26 -71.52" stroke="#1e1e1e" stroke-width="2" fill="none"></path></g><g transform="translate(478.7892437828689 567) rotate(0 36.01337219239758 -35.1487855706423)"><path d="M60.01 -49.19 C63.4 -57.53, 69.53 -66.53, 71.26 -71.52 M60.01 -49.19 C62.08 -54.23, 66 -60.41, 71.26 -71.52" stroke="#1e1e1e" stroke-width="2" fill="none"></path></g><g transform="translate(478.7892437828689 567) rotate(0 36.01337219239758 -35.1487855706423)"><path d="M48.29 -61.64 C56.2 -65.2, 66.82 -69.44, 71.26 -71.52 M48.29 -61.64 C53.18 -63.73, 59.92 -66.92, 71.26 -71.52" stroke="#1e1e1e" stroke-width="2" fill="none"></path></g></g><mask id="mask-j0y_hjaVfs8wL-g7BOJFL"><rect x="0" y="0" fill="#fff" width="650.815988167664" height="737.2975711412846"></rect><rect x="500.6026266564188" y="519.3512144293577" fill="#000" width="28.399978637695312" height="25" opacity="1"></rect></mask><g transform="translate(500.6026266564188 519.3512144293577) rotate(0 13.410942629808574 11.636789843058239)"><text x="14.199989318847656" y="0" font-family="Virgil, Segoe UI Emoji" font-size="20px" fill="#1e1e1e" text-anchor="middle" style="white-space: pre;" direction="ltr" dominant-baseline="text-before-edge">(a)</text></g><g mask="url(#mask-Dc-NE1Z1VmRdItjzKV52T)" stroke-linecap="round"><g transform="translate(631.815988167664 478.20459728141486) rotate(0 52.382671227047126 -13.147021169210689)"><path d="M0.19 0.09 C17.84 -4.07, 88.07 -21.32, 105.58 -25.8 M-1.16 -0.9 C16.43 -5.36, 87.41 -23.53, 105.06 -27.67" stroke="#1e1e1e" stroke-width="2" fill="none"></path></g><g transform="translate(631.815988167664 478.20459728141486) rotate(0 52.382671227047126 -13.147021169210689)"><path d="M84.3 -13.74 C90.22 -16.22, 96.54 -20.56, 105.06 -27.67 M84.3 -13.74 C89.58 -18.36, 93.92 -20.68, 105.06 -27.67" stroke="#1e1e1e" stroke-width="2" fill="none"></path></g><g transform="translate(631.815988167664 478.20459728141486) rotate(0 52.382671227047126 -13.147021169210689)"><path d="M80.2 -30.34 C87.12 -28.3, 94.57 -28.11, 105.06 -27.67 M80.2 -30.34 C86.64 -30.73, 92.03 -28.77, 105.06 -27.67" stroke="#1e1e1e" stroke-width="2" fill="none"></path></g></g><mask id="mask-Dc-NE1Z1VmRdItjzKV52T"><rect x="0" y="0" fill="#fff" width="836.5813306217583" height="604.4986396198362"></rect><rect x="671.5886740431486" y="452.55757611220406" fill="#000" width="25.219970703125" height="25" opacity="1"></rect></mask><g transform="translate(671.5886740431486 452.5575761122042) rotate(0 12.434222136372796 11.85903204402888)"><text x="12.6099853515625" y="0" font-family="Virgil, Segoe UI Emoji" font-size="20px" fill="#1e1e1e" text-anchor="middle" style="white-space: pre;" direction="ltr" dominant-baseline="text-before-edge">(b)</text></g><g mask="url(#mask-OXxoFOvXOKE-rEvc_e6GO)" stroke-linecap="round"><g transform="translate(457.7522968957546 570) rotate(0 26.108535001924224 -158.49999999999994)"><path d="M-0.8 -0.09 C7.9 -53.01, 44.05 -264.82, 52.7 -317.7 M0.99 -1.18 C9.52 -53.94, 43.26 -264.02, 52 -316.54" stroke="#1e1e1e" stroke-width="2" fill="none"></path></g><g transform="translate(457.7522968957546 570) rotate(0 26.108535001924224 -158.49999999999994)"><path d="M56.66 -291.98 C54.95 -299.66, 52.32 -310.75, 52 -316.54 M56.66 -291.98 C54.83 -298.47, 53.6 -305.25, 52 -316.54" stroke="#1e1e1e" stroke-width="2" fill="none"></path></g><g transform="translate(457.7522968957546 570) rotate(0 26.108535001924224 -158.49999999999994)"><path d="M39.78 -294.73 C43.88 -301.35, 47.06 -311.49, 52 -316.54 M39.78 -294.73 C42.46 -300.39, 45.71 -306.44, 52 -316.54" stroke="#1e1e1e" stroke-width="2" fill="none"></path></g></g><mask id="mask-OXxoFOvXOKE-rEvc_e6GO"><rect x="0" y="0" fill="#fff" width="609.9693668996031" height="986.9999999999999"></rect><rect x="455.66085783762014" y="386.5" fill="#000" width="56.39994812011719" height="50" opacity="1"></rect></mask><g transform="translate(455.66085783762014 386.5) rotate(0 28.042305954173344 24.60286080650991)"><text x="28.199974060058594" y="0" font-family="Virgil, Segoe UI Emoji" font-size="20px" fill="#1e1e1e" text-anchor="middle" style="white-space: pre;" direction="ltr" dominant-baseline="text-before-edge">(a)</text><text x="28.199974060058594" y="25" font-family="Virgil, Segoe UI Emoji" font-size="20px" fill="#1e1e1e" text-anchor="middle" style="white-space: pre;" direction="ltr" dominant-baseline="text-before-edge">HTTP</text></g><g stroke-linecap="round" transform="translate(555.815988167664 468) rotate(0 36.5 18)"><path d="M9 0 C27.12 0.66, 44.01 -0.49, 64 0 C72.87 -3.08, 72.75 6.38, 73 9 C75.05 17.06, 71.43 24.22, 73 27 C74.31 32.4, 67.66 38.71, 64 36 C46.1 37.53, 31.95 34.23, 9 36 C5.85 34.41, -0.47 30.4, 0 27 C1.32 20.33, -0.84 19.01, 0 9 C-0.61 0.25, 3.69 0.69, 9 0" stroke="none" stroke-width="0" fill="#a5d8ff"></path><path d="M9 0 C24.68 -0.53, 43.21 1.66, 64 0 M9 0 C29.43 0.75, 51.95 -0.69, 64 0 M64 0 C68.68 -0.74, 74.07 1.79, 73 9 M64 0 C70.48 -1.53, 71.75 2.73, 73 9 M73 9 C73.96 12.84, 73.76 18.86, 73 27 M73 9 C73.17 14.86, 72.56 19.28, 73 27 M73 27 C74.33 31.82, 69.28 36.64, 64 36 M73 27 C72.9 32.4, 70.64 34.17, 64 36 M64 36 C46.17 34.49, 25.78 36.21, 9 36 M64 36 C45.39 36, 26.39 36.28, 9 36 M9 36 C2.11 35.05, 1.42 32.62, 0 27 M9 36 C2.52 36.25, -1.1 33.16, 0 27 M0 27 C-0.95 19.89, -1.65 14.75, 0 9 M0 27 C-0.45 22.03, 0.68 15.76, 0 9 M0 9 C-1.74 3.53, 4.44 1.18, 9 0 M0 9 C1.66 2.83, 1.56 0.16, 9 0" stroke="#1e1e1e" stroke-width="2" fill="none"></path></g><g transform="translate(563.2560058678594 473.5) rotate(0 29.059982299804688 12.5)"><text x="29.059982299804688" y="0" font-family="Virgil, Segoe UI Emoji" font-size="20px" fill="#1e1e1e" text-anchor="middle" style="white-space: pre;" direction="ltr" dominant-baseline="text-before-edge">8080</text></g><g stroke-linecap="round" transform="translate(499.81598816766405 194) rotate(0 43 27)"><path d="M13.5 0 C33.67 -3.04, 58.08 0.97, 72.5 0 C78.35 -1.33, 84.22 5.88, 86 13.5 C86.53 20.44, 89.35 28.32, 86 40.5 C85.99 47.8, 82.04 54.49, 72.5 54 C61.12 55.7, 41.2 51.48, 13.5 54 C1.89 56.45, -1.06 49.34, 0 40.5 C-1.54 31.78, -2.98 22.22, 0 13.5 C2.3 7.62, 5.43 -2.61, 13.5 0" stroke="none" stroke-width="0" fill="#a5d8ff"></path><path d="M13.5 0 C34.58 0.38, 58.64 0.56, 72.5 0 M13.5 0 C25.23 0.05, 38.08 0.75, 72.5 0 M72.5 0 C81.66 -0.66, 87.15 5.78, 86 13.5 M72.5 0 C83.5 -2.21, 84.6 4.73, 86 13.5 M86 13.5 C87.91 21.05, 87.76 28.77, 86 40.5 M86 13.5 C86.63 20.43, 85.56 25.69, 86 40.5 M86 40.5 C87.54 47.58, 80.01 53.89, 72.5 54 M86 40.5 C86.5 48.39, 80.35 53.36, 72.5 54 M72.5 54 C48.8 52.02, 29.47 52.82, 13.5 54 M72.5 54 C52.25 54.08, 32.11 52.89, 13.5 54 M13.5 54 C3.54 53.05, 1.58 50.39, 0 40.5 M13.5 54 C5.02 53.15, 1.3 49.11, 0 40.5 M0 40.5 C0.08 34.79, -1.59 27.04, 0 13.5 M0 40.5 C-1.06 34.3, -0.39 29.43, 0 13.5 M0 13.5 C-1.43 3.8, 2.69 -1.03, 13.5 0 M0 13.5 C2.14 6.59, 6.55 1.1, 13.5 0" stroke="#1e1e1e" stroke-width="2" fill="none"></path></g><g transform="translate(513.7560058678594 208.5) rotate(0 29.059982299804688 12.5)"><text x="29.059982299804688" y="0" font-family="Virgil, Segoe UI Emoji" font-size="20px" fill="#1e1e1e" text-anchor="middle" style="white-space: pre;" direction="ltr" dominant-baseline="text-before-edge">8080</text></g><g stroke-linecap="round" transform="translate(631.815988167664 341) rotate(0 37.5 18.5)"><path d="M9.25 0 C22.91 -3.55, 39.76 -3.17, 65.75 0 C73.81 -1.15, 75.59 4.27, 75 9.25 C75.67 18.62, 71.94 21.16, 75 27.75 C78.35 36.55, 70.62 39.54, 65.75 37 C41.69 34.43, 26.54 40.33, 9.25 37 C6.53 39.19, -2.4 32.08, 0 27.75 C2.86 22.17, 0.62 14.88, 0 9.25 C-0.91 3.67, 1.53 -2.15, 9.25 0" stroke="none" stroke-width="0" fill="#a5d8ff"></path><path d="M9.25 0 C20.48 0.93, 35.94 -0.08, 65.75 0 M9.25 0 C32.51 0.67, 53.9 1.16, 65.75 0 M65.75 0 C71.42 -0.62, 75.78 1.48, 75 9.25 M65.75 0 C73.1 -1.76, 75.79 3.69, 75 9.25 M75 9.25 C74.65 14.86, 74.48 19.99, 75 27.75 M75 9.25 C75.21 16.17, 74.96 24.55, 75 27.75 M75 27.75 C74.47 34.65, 71.9 37.98, 65.75 37 M75 27.75 C75.59 35.91, 74.18 39.05, 65.75 37 M65.75 37 C42.99 37.42, 21.93 35.98, 9.25 37 M65.75 37 C54.45 37.13, 41.06 37.86, 9.25 37 M9.25 37 C1.98 36.43, -1.7 34.46, 0 27.75 M9.25 37 C1.55 35.27, 0.38 36.2, 0 27.75 M0 27.75 C1.38 21.73, -0.01 17.74, 0 9.25 M0 27.75 C-0.69 22.28, -0.7 16.08, 0 9.25 M0 9.25 C1.57 4.92, 1.14 -1.49, 9.25 0 M0 9.25 C-1.52 2.96, 3.22 -1.51, 9.25 0" stroke="#1e1e1e" stroke-width="2" fill="none"></path></g><g transform="translate(655.7659927453008 347) rotate(0 13.549995422363281 12.5)"><text x="13.549995422363281" y="0" font-family="Virgil, Segoe UI Emoji" font-size="20px" fill="#1e1e1e" text-anchor="middle" style="white-space: pre;" direction="ltr" dominant-baseline="text-before-edge">11111</text></g><g stroke-linecap="round" transform="translate(696.815988167664 483) rotate(0 46.5 17.5)"><path d="M8.75 0 C27.94 3.73, 55.81 4.64, 84.25 0 C92.27 -2.4, 91.17 5.65, 93 8.75 C94.58 15.25, 94.26 19.57, 93 26.25 C93.59 30.53, 87.94 33.7, 84.25 35 C64.58 37.47, 46.78 35.15, 8.75 35 C0.33 38.18, 2.57 34.32, 0 26.25 C2.02 22.38, 0.87 14.84, 0 8.75 C-2.97 3.31, 2.65 -1.49, 8.75 0" stroke="none" stroke-width="0" fill="#a5d8ff"></path><path d="M8.75 0 C34.7 -0.48, 60.15 2.14, 84.25 0 M8.75 0 C27.26 -0.19, 47.34 -0.51, 84.25 0 M84.25 0 C90.82 -0.02, 93.98 3.43, 93 8.75 M84.25 0 C92.08 2.27, 95.05 4.93, 93 8.75 M93 8.75 C93.66 13.49, 92.4 16.77, 93 26.25 M93 8.75 C93.08 14.95, 93.72 21.54, 93 26.25 M93 26.25 C92.43 30.38, 90.63 33.67, 84.25 35 M93 26.25 C91.27 32.46, 92.36 33.74, 84.25 35 M84.25 35 C54.51 35.75, 26.96 35.56, 8.75 35 M84.25 35 C66.48 33.45, 47.92 35.13, 8.75 35 M8.75 35 C4.76 33.05, -1.49 30.76, 0 26.25 M8.75 35 C2.79 35.14, -1.51 31.12, 0 26.25 M0 26.25 C-1.55 20.33, -1.36 14.01, 0 8.75 M0 26.25 C0.51 21.17, 0.73 17.08, 0 8.75 M0 8.75 C1.61 1.17, 2.03 1.86, 8.75 0 M0 8.75 C1.69 2.09, 4.54 1.6, 8.75 0" stroke="#1e1e1e" stroke-width="2" fill="none"></path></g><g transform="translate(708.9860015953984 488) rotate(0 34.329986572265625 12.5)"><text x="34.329986572265625" y="0" font-family="Virgil, Segoe UI Emoji" font-size="20px" fill="#1e1e1e" text-anchor="middle" style="white-space: pre;" direction="ltr" dominant-baseline="text-before-edge">30000</text></g><g stroke-linecap="round" transform="translate(665.315988167664 210.5) rotate(0 37.5 18.5)"><path d="M9.25 0 C30.05 -0.55, 48.1 1.11, 65.75 0 C69.79 -1.42, 74.27 4.63, 75 9.25 C73.09 14.94, 72.3 24.28, 75 27.75 C71.75 36.1, 73.69 37.97, 65.75 37 C51.71 36.1, 29.93 38.88, 9.25 37 C5.68 38.3, 1.72 35.65, 0 27.75 C1.81 18.3, 2.89 16.49, 0 9.25 C-1.01 3.2, 1.21 -1.88, 9.25 0" stroke="none" stroke-width="0" fill="#a5d8ff"></path><path d="M9.25 0 C21.05 2.43, 35.57 -1.38, 65.75 0 M9.25 0 C20.95 1.12, 32.68 0.25, 65.75 0 M65.75 0 C72.08 1.33, 74.81 4.08, 75 9.25 M65.75 0 C72.02 -1.6, 73.79 3.66, 75 9.25 M75 9.25 C75.66 14.1, 74.35 20.51, 75 27.75 M75 9.25 C74.43 15.71, 74.35 23.93, 75 27.75 M75 27.75 C73.8 31.97, 72.87 36.14, 65.75 37 M75 27.75 C74.36 34.5, 73.55 36.39, 65.75 37 M65.75 37 C44.22 37.98, 22.56 35.52, 9.25 37 M65.75 37 C49.43 37.17, 31.78 37.41, 9.25 37 M9.25 37 C1.3 35.03, 1.69 33.87, 0 27.75 M9.25 37 C3.69 36.89, 1.29 35.18, 0 27.75 M0 27.75 C0.34 22.49, -1.14 14.99, 0 9.25 M0 27.75 C0.64 19.72, 0.26 13.51, 0 9.25 M0 9.25 C-0.21 2.04, 2.33 -1.83, 9.25 0 M0 9.25 C1.25 1.8, 1.96 -0.95, 9.25 0" stroke="#1e1e1e" stroke-width="2" fill="none"></path></g><g transform="translate(689.2659927453008 216.5) rotate(0 13.549995422363281 12.5)"><text x="13.549995422363281" y="0" font-family="Virgil, Segoe UI Emoji" font-size="20px" fill="#1e1e1e" text-anchor="middle" style="white-space: pre;" direction="ltr" dominant-baseline="text-before-edge">11111</text></g><g mask="url(#mask-NCfxwTGe0OJn1fFVY0d6T)" stroke-linecap="round"><g transform="translate(671.4338419951059 384) rotate(0 33.93990928904998 20.55221024182697)"><path d="M0.2 -0.53 C11.19 6.28, 55.55 33.47, 66.76 40.44 M-1.16 1.81 C10.12 8.8, 57.61 34.81, 68.88 41.63" stroke="#1e1e1e" stroke-width="2" fill="none"></path></g><g transform="translate(671.4338419951059 384) rotate(0 33.93990928904998 20.55221024182697)"><path d="M44.24 37.38 C52.36 37.02, 61.13 39.76, 68.88 41.63 M44.24 37.38 C51.69 39.33, 60.82 39.96, 68.88 41.63" stroke="#1e1e1e" stroke-width="2" fill="none"></path></g><g transform="translate(671.4338419951059 384) rotate(0 33.93990928904998 20.55221024182697)"><path d="M52.74 22.53 C57.7 27.62, 63.36 35.78, 68.88 41.63 M52.74 22.53 C57.64 29.19, 64.07 34.51, 68.88 41.63" stroke="#1e1e1e" stroke-width="2" fill="none"></path></g></g><mask id="mask-NCfxwTGe0OJn1fFVY0d6T"><rect x="0" y="0" fill="#fff" width="839.3136605732059" height="525.1044204836539"></rect><rect x="692.8237634911873" y="392.05221024182697" fill="#000" width="25.0999755859375" height="25" opacity="1"></rect></mask><g transform="translate(692.8237634911873 392.05221024182697) rotate(0 12.47066431829694 12.497445103740347)"><text x="12.54998779296875" y="0" font-family="Virgil, Segoe UI Emoji" font-size="20px" fill="#1e1e1e" text-anchor="middle" style="white-space: pre;" direction="ltr" dominant-baseline="text-before-edge">(c)</text></g><g stroke-linecap="round" transform="translate(687.315988167664 90.5) rotate(0 46.5 17.5)"><path d="M8.75 0 C32.42 -2, 56.29 2.25, 84.25 0 C88.22 -0.04, 92.21 1.49, 93 8.75 C92.18 10.35, 92.93 14.79, 93 26.25 C91.82 35.05, 86.6 36.71, 84.25 35 C65.06 32.88, 54.76 35.92, 8.75 35 C0.01 37.22, 0.99 35.44, 0 26.25 C3.15 23.63, -0.92 20.24, 0 8.75 C-0.51 6.22, -0.31 2.07, 8.75 0" stroke="none" stroke-width="0" fill="#a5d8ff"></path><path d="M8.75 0 C32.49 -0.83, 56.67 1.23, 84.25 0 M8.75 0 C26.45 0.48, 42.69 -0.75, 84.25 0 M84.25 0 C90.09 0.01, 91.49 2.86, 93 8.75 M84.25 0 C91.3 2.04, 94.78 3.21, 93 8.75 M93 8.75 C94.51 13.97, 93.94 18.18, 93 26.25 M93 8.75 C92.34 13.96, 92.39 20.88, 93 26.25 M93 26.25 C92.2 31.2, 91.26 34.65, 84.25 35 M93 26.25 C93.18 31.31, 90.64 34.46, 84.25 35 M84.25 35 C60.7 34.72, 41.19 34.7, 8.75 35 M84.25 35 C63.6 35.31, 43.86 34.39, 8.75 35 M8.75 35 C4.04 34.72, 0.89 32.91, 0 26.25 M8.75 35 C1 35.3, 0.41 30.97, 0 26.25 M0 26.25 C0.23 18.29, 1.55 13.43, 0 8.75 M0 26.25 C0.11 20.84, 0.61 16.55, 0 8.75 M0 8.75 C-0.46 3.35, 0.99 1.31, 8.75 0 M0 8.75 C1.59 0.62, 4.07 -2.26, 8.75 0" stroke="#1e1e1e" stroke-width="2" fill="none"></path></g><g transform="translate(699.4860015953984 95.5) rotate(0 34.329986572265625 12.5)"><text x="34.329986572265625" y="0" font-family="Virgil, Segoe UI Emoji" font-size="20px" fill="#1e1e1e" text-anchor="middle" style="white-space: pre;" direction="ltr" dominant-baseline="text-before-edge">30000</text></g></svg>