<svg version="1.1" xmlns="http://www.w3.org/2000/svg" viewBox="0 0 1574.815988167664 935" width="1574.815988167664" height="935">
  <!-- svg-source:excalidraw -->
  
  <defs>
    <style class="style-fonts">
      @font-face {
        font-family: "Virgil";
        src: url("https://excalidraw.com/Virgil.woff2");
      }
      @font-face {
        font-family: "Cascadia";
        src: url("https://excalidraw.com/Cascadia.woff2");
      }
      @font-face {
        font-family: "Assistant";
        src: url("https://excalidraw.com/Assistant-Regular.woff2");
      }
    </style>
    
  </defs>
  <rect x="0" y="0" width="1574.815988167664" height="935" fill="#ffffff"></rect><g stroke-linecap="round" transform="translate(397.81598816766405 10) rotate(0 583.5 457.5)"><path d="M32 0 C391.98 0.98, 750.93 0.98, 1135 0 M32 0 C446.61 2.98, 861.42 3.42, 1135 0 M1135 0 C1155.85 0.66, 1166.89 12.24, 1167 32 M1135 0 C1154.09 0.24, 1167.37 11.24, 1167 32 M1167 32 C1169.98 356.47, 1169.09 681.94, 1167 883 M1167 32 C1168.87 300.23, 1169.33 569.43, 1167 883 M1167 883 C1168.44 904.18, 1155.17 916.24, 1135 915 M1167 883 C1166.56 906.47, 1156.67 915.78, 1135 915 M1135 915 C831.83 912.33, 528.92 912.02, 32 915 M1135 915 C776.31 912.39, 417.3 912.49, 32 915 M32 915 C11.15 913.53, 1.05 905.3, 0 883 M32 915 C12.17 914.02, 0.56 902.71, 0 883 M0 883 C-1.81 567.09, -2.09 250.33, 0 32 M0 883 C-3.46 544.96, -3.4 206.49, 0 32 M0 32 C1.01 8.91, 11.12 -0.04, 32 0 M0 32 C0.16 10.04, 8.95 0.33, 32 0" stroke="#1e1e1e" stroke-width="2" fill="none"></path></g><g transform="translate(402.81598816766405 15) rotate(0 106.139892578125 12.5)"><text x="0" y="0" font-family="Virgil, Segoe UI Emoji" font-size="20px" fill="#1e1e1e" text-anchor="start" style="white-space: pre;" direction="ltr" dominant-baseline="text-before-edge">k8s cluster (minikube)</text></g><g stroke-linecap="round" transform="translate(1198.815988167664 63) rotate(0 135 119.5)"><path d="M32 0 C81.94 -2.67, 127.16 -3.47, 238 0 C261.04 1, 268.47 12.97, 270 32 C272.83 74.35, 270.58 121.94, 270 207 C266.91 227.94, 256.56 240.1, 238 239 C159.79 240.33, 75.48 237.5, 32 239 C9.06 236.6, -1.7 227.06, 0 207 C-0.82 152.82, -0.53 107.27, 0 32 C1.39 7.38, 7.17 0.69, 32 0" stroke="none" stroke-width="0" fill="#ffec99"></path><path d="M32 0 C96.37 1.76, 161.27 0.22, 238 0 M32 0 C85.09 -1.77, 137.47 -1.71, 238 0 M238 0 C260.8 -0.56, 268.02 11.22, 270 32 M238 0 C259.35 -1.69, 268.76 9.12, 270 32 M270 32 C267.21 101.66, 268.34 167.3, 270 207 M270 32 C271.65 88.94, 272.13 146.38, 270 207 M270 207 C268.98 229.89, 258.66 239.66, 238 239 M270 207 C270.47 228.23, 260.39 237.43, 238 239 M238 239 C169.98 241.23, 102.4 240.11, 32 239 M238 239 C169.89 240.29, 101.27 239.8, 32 239 M32 239 C10.17 239.7, -0.33 227.29, 0 207 M32 239 C12.53 239.75, -0.3 226.79, 0 207 M0 207 C1.19 164.15, 2.27 118.54, 0 32 M0 207 C1.54 147.91, 1.7 90.11, 0 32 M0 32 C1.35 10.63, 10.63 -0.81, 32 0 M0 32 C0.72 10.29, 12.91 -0.77, 32 0" stroke="#1e1e1e" stroke-width="2" fill="none"></path></g><g transform="translate(1227.406076058289 157.5) rotate(0 106.409912109375 25)"><text x="106.409912109375" y="0" font-family="Virgil, Segoe UI Emoji" font-size="20px" fill="#1e1e1e" text-anchor="middle" style="white-space: pre;" direction="ltr" dominant-baseline="text-before-edge">azure table storage </text><text x="106.409912109375" y="25" font-family="Virgil, Segoe UI Emoji" font-size="20px" fill="#1e1e1e" text-anchor="middle" style="white-space: pre;" direction="ltr" dominant-baseline="text-before-edge">(azurite)</text></g><g stroke-linecap="round" transform="translate(448.81598816766405 68) rotate(0 187 227.5)"><path d="M32 0 C153.56 1.82, 276.76 1.48, 342 0 C366.64 2.68, 370.46 7.18, 374 32 C373.15 183.73, 371.41 334.39, 374 423 C372.5 447.11, 364.86 455.05, 342 455 C254.83 456.2, 168.27 458.11, 32 455 C9.41 454.23, 3.06 443.94, 0 423 C-4.9 333.8, -3.42 239.03, 0 32 C-1.75 8.59, 10 0.92, 32 0" stroke="none" stroke-width="0" fill="#b2f2bb"></path><path d="M32 0 C111.09 -0.29, 189.15 -1.47, 342 0 M32 0 C153.03 -1.14, 275.7 -0.78, 342 0 M342 0 C361.44 -1.12, 373.55 9.41, 374 32 M342 0 C363.48 0.76, 374.92 9.57, 374 32 M374 32 C373.29 161.39, 372.01 293.03, 374 423 M374 32 C375.18 180.87, 375.51 330.51, 374 423 M374 423 C374.67 442.67, 365.12 453.09, 342 455 M374 423 C373.85 445.31, 363.26 454.68, 342 455 M342 455 C255.21 456.39, 168.18 455.97, 32 455 M342 455 C259.63 453.78, 177.53 454.08, 32 455 M32 455 C12.26 456.68, 1.71 444.24, 0 423 M32 455 C9.12 453.08, 1.14 445.77, 0 423 M0 423 C2.1 296.56, 2.02 171.73, 0 32 M0 423 C-0.93 278.23, -0.79 132.85, 0 32 M0 32 C1.98 11.43, 9.79 -1.87, 32 0 M0 32 C1.68 9.07, 11.37 -2.07, 32 0" stroke="#1e1e1e" stroke-width="2" fill="none"></path></g><g transform="translate(453.81598816766405 73) rotate(0 127.12987518310547 12.5)"><text x="0" y="0" font-family="Virgil, Segoe UI Emoji" font-size="20px" fill="#1e1e1e" text-anchor="start" style="white-space: pre;" direction="ltr" dominant-baseline="text-before-edge">ws-proxy (orleans cluster)</text></g><g stroke-linecap="round" transform="translate(1199.815988167664 536) rotate(0 132 138.5)"><path d="M32 0 C104.69 0.89, 185.68 3.08, 232 0 C254.57 -0.05, 262.72 10.51, 264 32 C265.77 81.81, 266.39 129.59, 264 245 C261.67 264.41, 253.75 278.86, 232 277 C189.16 277.39, 140.71 281.93, 32 277 C9.18 277.07, -3.13 267.67, 0 245 C-1.13 174.68, -2.46 101.54, 0 32 C-0.45 9.6, 12.26 -0.63, 32 0" stroke="none" stroke-width="0" fill="#a5d8ff"></path><path d="M32 0 C109.57 -1.22, 189.97 -0.87, 232 0 M32 0 C82.65 0.22, 135.6 -0.6, 232 0 M232 0 C252.03 -1.75, 263.59 10.32, 264 32 M232 0 C255.31 0.52, 261.75 8.57, 264 32 M264 32 C262.43 112.12, 262.16 193.96, 264 245 M264 32 C262.66 76.1, 262.19 121.96, 264 245 M264 245 C262.72 267.5, 254.65 277.42, 232 277 M264 245 C264.32 268.37, 254.8 276.2, 232 277 M232 277 C177.51 277.8, 119.47 279.16, 32 277 M232 277 C157.81 277.65, 83.15 276.81, 32 277 M32 277 C11.49 277.29, 1.76 268.03, 0 245 M32 277 C11.17 276.32, -0.32 265.85, 0 245 M0 245 C-2.22 163.71, -2.02 82.9, 0 32 M0 245 C0.45 188.53, 0.5 131.44, 0 32 M0 32 C1.53 12.42, 12.22 0.78, 32 0 M0 32 C0.46 11.07, 9.14 -2.13, 32 0" stroke="#1e1e1e" stroke-width="2" fill="none"></path></g><g transform="translate(1260.9060684288945 662) rotate(0 70.90991973876953 12.5)"><text x="70.90991973876953" y="0" font-family="Virgil, Segoe UI Emoji" font-size="20px" fill="#1e1e1e" text-anchor="middle" style="white-space: pre;" direction="ltr" dominant-baseline="text-before-edge">ws-echo-server</text></g><g stroke-linecap="round" transform="translate(450.81598816766405 632.5) rotate(0 185 138.5)"><path d="M32 0 C101.32 5.27, 175.04 3.85, 338 0 C358.51 -1, 370.77 9.56, 370 32 C367.19 84.49, 364.15 142.64, 370 245 C371.71 264.77, 359.56 280.24, 338 277 C264.68 275.82, 192.38 274.31, 32 277 C10.93 274.97, 2.24 262.78, 0 245 C1.61 177.92, 0.01 113.58, 0 32 C3.48 12.21, 10.38 -1.8, 32 0" stroke="none" stroke-width="0" fill="#ffc9c9"></path><path d="M32 0 C115.26 0.72, 197.43 0.59, 338 0 M32 0 C132.9 1.64, 232.51 1.53, 338 0 M338 0 C359.25 0.33, 370.68 10.55, 370 32 M338 0 C359.76 -0.04, 368.46 11.44, 370 32 M370 32 C368.91 105.58, 370.68 175.73, 370 245 M370 32 C367.46 95.77, 368.07 157.21, 370 245 M370 245 C370.82 265.14, 357.46 278.32, 338 277 M370 245 C371.98 267.01, 359.89 277.85, 338 277 M338 277 C269.87 274.63, 202.17 275.97, 32 277 M338 277 C233.08 277.99, 128.99 276.9, 32 277 M32 277 C9.07 275.56, -1.04 267.84, 0 245 M32 277 C11.73 276.35, -1.31 266.37, 0 245 M0 245 C1.02 180.14, 0.66 119.55, 0 32 M0 245 C-0.04 200.22, -0.02 157.49, 0 32 M0 32 C-1.46 10.77, 12.34 -0.38, 32 0 M0 32 C-1.69 11.67, 12.87 -1.63, 32 0" stroke="#1e1e1e" stroke-width="2" fill="none"></path></g><g transform="translate(565.3660675133672 758.5) rotate(0 70.44992065429688 12.5)"><text x="70.44992065429688" y="0" font-family="Virgil, Segoe UI Emoji" font-size="20px" fill="#1e1e1e" text-anchor="middle" style="white-space: pre;" direction="ltr" dominant-baseline="text-before-edge">ws-proxy-client</text></g><g stroke-linecap="round" transform="translate(497.81598816766405 110) rotate(0 129.5 65)"><path d="M32 0 C99.07 -4.66, 171.75 -4.95, 227 0 C250.81 -1.23, 258.4 8.95, 259 32 C257.85 51.57, 260.76 62.08, 259 98 C256.89 118.69, 249.29 130.78, 227 130 C181.15 126.93, 129.58 128.08, 32 130 C11.34 132.57, 2.61 117.83, 0 98 C2.59 81.93, -0.07 70.71, 0 32 C-3.36 10.91, 14.11 -0.46, 32 0" stroke="none" stroke-width="0" fill="#ffffff"></path><path d="M32 0 C75.06 1.88, 121.63 -0.72, 227 0 M32 0 C105.16 2.06, 180.31 2.61, 227 0 M227 0 C246.55 1.54, 259.77 10.83, 259 32 M227 0 C247.72 1.4, 259.86 11.98, 259 32 M259 32 C260.88 46.26, 257.62 59.27, 259 98 M259 32 C258.38 50.4, 258.51 68.94, 259 98 M259 98 C260.18 120.41, 248.69 128.42, 227 130 M259 98 C259.78 117.6, 247.9 131.64, 227 130 M227 130 C167.38 129.66, 102.71 127.22, 32 130 M227 130 C183.78 127.89, 141.83 128.4, 32 130 M32 130 C12.35 130.58, 0.55 118.35, 0 98 M32 130 C11.32 129.66, 2.05 118.16, 0 98 M0 98 C-0.7 76.96, -0.01 57.56, 0 32 M0 98 C-1.05 81.44, 0.48 63.99, 0 32 M0 32 C0.76 9.15, 10.72 -0.55, 32 0 M0 32 C-2.27 9.44, 11.55 2.27, 32 0" stroke="#1e1e1e" stroke-width="2" fill="none"></path></g><g transform="translate(502.81598816766405 115) rotate(0 23.499977111816406 12.5)"><text x="0" y="0" font-family="Virgil, Segoe UI Emoji" font-size="20px" fill="#1e1e1e" text-anchor="start" style="white-space: pre;" direction="ltr" dominant-baseline="text-before-edge">silo 1</text></g><g stroke-linecap="round" transform="translate(503.31598816766405 364) rotate(0 129.5 65)"><path d="M32 0 C84.01 -0.55, 141.84 -2.85, 227 0 C250.67 1.07, 256.23 12.43, 259 32 C258.49 58.2, 257.69 83.26, 259 98 C259.16 122.3, 248 127.71, 227 130 C156.97 127.31, 91.92 130.29, 32 130 C12.96 133.51, 0.63 117.74, 0 98 C0.5 75.6, -2.42 45.31, 0 32 C-2.41 11.95, 9.92 0.49, 32 0" stroke="none" stroke-width="0" fill="#ffffff"></path><path d="M32 0 C104.06 0.62, 173.66 2.15, 227 0 M32 0 C94.56 1.39, 154.37 0.69, 227 0 M227 0 C246.66 -0.52, 259.86 11.56, 259 32 M227 0 C250.11 1.2, 257.19 9.72, 259 32 M259 32 C258.52 52.52, 259.02 74.05, 259 98 M259 32 C258.5 58.52, 258.83 84.77, 259 98 M259 98 C260.48 118.2, 246.41 130.18, 227 130 M259 98 C260.14 119.53, 248.84 129.01, 227 130 M227 130 C181.56 129.67, 134.79 127.09, 32 130 M227 130 C173.67 129.44, 118.46 128.83, 32 130 M32 130 C10.85 129.46, -0.82 117.39, 0 98 M32 130 C12.24 130.33, 1.94 118.17, 0 98 M0 98 C-1 75.74, -0.94 55.47, 0 32 M0 98 C0.05 78.49, -0.42 60.72, 0 32 M0 32 C0.87 12.42, 8.82 -1.32, 32 0 M0 32 C2.02 10.33, 10.44 1.98, 32 0" stroke="#1e1e1e" stroke-width="2" fill="none"></path></g><g transform="translate(508.31598816766405 369) rotate(0 27.90997314453125 12.5)"><text x="0" y="0" font-family="Virgil, Segoe UI Emoji" font-size="20px" fill="#1e1e1e" text-anchor="start" style="white-space: pre;" direction="ltr" dominant-baseline="text-before-edge">silo 2</text></g><g mask="url(#mask-7bF7u23NT4nLJ4BjgVA1f)" stroke-linecap="round"><g transform="translate(449.81598816766405 281) rotate(0 -219.5 -1.5)"><path d="M0.18 -1.07 C-72.92 -1.6, -365.85 -3.49, -438.91 -3.78 M-1.18 0.98 C-74.41 0.64, -366.92 -2.26, -439.82 -2.64" stroke="#1e1e1e" stroke-width="2" fill="none"></path></g><g transform="translate(449.81598816766405 281) rotate(0 -219.5 -1.5)"><path d="M-416.26 -11.01 C-424.59 -8.52, -430.61 -5.05, -439.82 -2.64 M-416.26 -11.01 C-424.14 -7.97, -430.33 -5.89, -439.82 -2.64" stroke="#1e1e1e" stroke-width="2" fill="none"></path></g><g transform="translate(449.81598816766405 281) rotate(0 -219.5 -1.5)"><path d="M-416.39 6.09 C-424.6 3.86, -430.58 2.6, -439.82 -2.64 M-416.39 6.09 C-424.12 3.7, -430.27 0.34, -439.82 -2.64" stroke="#1e1e1e" stroke-width="2" fill="none"></path></g></g><mask id="mask-7bF7u23NT4nLJ4BjgVA1f"><rect x="0" y="0" fill="#fff" width="988.815988167664" height="384"></rect><rect x="140.59606324090623" y="254.5" fill="#000" width="179.43984985351562" height="50" opacity="1"></rect></mask><g transform="translate(140.59606324090623 254.5) rotate(0 89.40365184568338 25.102968913610113)"><text x="89.71992492675781" y="0" font-family="Virgil, Segoe UI Emoji" font-size="20px" fill="#1e1e1e" text-anchor="middle" style="white-space: pre;" direction="ltr" dominant-baseline="text-before-edge">HTTP, 5223</text><text x="89.71992492675781" y="25" font-family="Virgil, Segoe UI Emoji" font-size="20px" fill="#1e1e1e" text-anchor="middle" style="white-space: pre;" direction="ltr" dominant-baseline="text-before-edge">orleans dashboard</text></g><g mask="url(#mask-8kJPbSB43jKtSjOtOfLNL)" stroke-linecap="round"><g transform="translate(450.81598816766405 778) rotate(0 -176.5 -5)"><path d="M0.29 -0.26 C-58.52 -1.69, -292.9 -7.82, -351.83 -9.42 M-1.02 -1.44 C-59.97 -3.15, -293.3 -10.06, -352.17 -11.24" stroke="#1e1e1e" stroke-width="2" fill="none"></path></g><g transform="translate(450.81598816766405 778) rotate(0 -176.5 -5)"><path d="M-328.46 -19.19 C-338.08 -14.12, -345.8 -13.49, -352.17 -11.24 M-328.46 -19.19 C-335.78 -16.75, -343.43 -14.8, -352.17 -11.24" stroke="#1e1e1e" stroke-width="2" fill="none"></path></g><g transform="translate(450.81598816766405 778) rotate(0 -176.5 -5)"><path d="M-328.9 -2.09 C-338.22 -3.61, -345.78 -9.56, -352.17 -11.24 M-328.9 -2.09 C-336.23 -4.96, -343.75 -8.32, -352.17 -11.24" stroke="#1e1e1e" stroke-width="2" fill="none"></path></g></g><mask id="mask-8kJPbSB43jKtSjOtOfLNL"><rect x="0" y="0" fill="#fff" width="903.815988167664" height="888"></rect><rect x="209.246034249207" y="748" fill="#000" width="130.13990783691406" height="50" opacity="1"></rect></mask><g transform="translate(209.246034249207 748) rotate(0 65.63251467846794 24.25044648929969)"><text x="65.06995391845703" y="0" font-family="Virgil, Segoe UI Emoji" font-size="20px" fill="#1e1e1e" text-anchor="middle" style="white-space: pre;" direction="ltr" dominant-baseline="text-before-edge">HTTP, 8082</text><text x="65.06995391845703" y="25" font-family="Virgil, Segoe UI Emoji" font-size="20px" fill="#1e1e1e" text-anchor="middle" style="white-space: pre;" direction="ltr" dominant-baseline="text-before-edge">swagger</text></g><g mask="url(#mask-67tTeOfccwQrDrK4z1WL-)" stroke-linecap="round"><g transform="translate(542.3727522688475 241) rotate(0 -0.9999325736627043 60.270870978762446)"><path d="M-0.02 -0.97 C-0.29 19.1, -2.05 100.88, -2.38 121 M-1.49 1.13 C-1.89 20.8, -3.31 99.2, -3.53 119.12" stroke="#1e1e1e" stroke-width="2" fill="none"></path></g><g transform="translate(542.3727522688475 241) rotate(0 -0.9999325736627043 60.270870978762446)"><path d="M-11.72 95.5 C-11.28 100.53, -6.92 106.8, -3.53 119.12 M-11.72 95.5 C-9.78 101.62, -7.86 105.65, -3.53 119.12" stroke="#1e1e1e" stroke-width="2" fill="none"></path></g><g transform="translate(542.3727522688475 241) rotate(0 -0.9999325736627043 60.270870978762446)"><path d="M5.38 95.76 C1.72 100.73, 1.98 106.93, -3.53 119.12 M5.38 95.76 C3.3 101.94, 1.21 105.91, -3.53 119.12" stroke="#1e1e1e" stroke-width="2" fill="none"></path></g></g><mask id="mask-67tTeOfccwQrDrK4z1WL-"><rect x="0" y="0" fill="#fff" width="644.372617416173" height="461.5417419575249"></rect><rect x="517.7128389212592" y="276.27087097876245" fill="#000" width="47.31996154785156" height="50" opacity="1"></rect></mask><g transform="translate(517.7128389212592 276.27087097876245) rotate(0 22.88825101398379 24.743046584725363)"><text x="23.65998077392578" y="0" font-family="Virgil, Segoe UI Emoji" font-size="20px" fill="#1e1e1e" text-anchor="middle" style="white-space: pre;" direction="ltr" dominant-baseline="text-before-edge">TCP,</text><text x="23.65998077392578" y="25" font-family="Virgil, Segoe UI Emoji" font-size="20px" fill="#1e1e1e" text-anchor="middle" style="white-space: pre;" direction="ltr" dominant-baseline="text-before-edge">11111 </text></g><g mask="url(#mask-_gRyfy67v9ptf9YQmmyY8)" stroke-linecap="round"><g transform="translate(645.1718897228684 361.58847291917095) rotate(0 -0.13876988818242353 -60.29423645958548)"><path d="M1.17 0.81 C0.89 -19.25, -0.82 -100.31, -1.03 -120.53 M0.33 0.19 C0.38 -19.65, 1.47 -99.07, 1.29 -118.96" stroke="#1e1e1e" stroke-width="2" fill="none"></path></g><g transform="translate(645.1718897228684 361.58847291917095) rotate(0 -0.13876988818242353 -60.29423645958548)"><path d="M9.75 -95.43 C8.13 -104.93, 3.89 -111.67, 1.29 -118.96 M9.75 -95.43 C8.03 -103.12, 4.84 -110.05, 1.29 -118.96" stroke="#1e1e1e" stroke-width="2" fill="none"></path></g><g transform="translate(645.1718897228684 361.58847291917095) rotate(0 -0.13876988818242353 -60.29423645958548)"><path d="M-7.35 -95.5 C-2.91 -105.14, -1.1 -111.85, 1.29 -118.96 M-7.35 -95.5 C-3.84 -103.01, -1.8 -109.92, 1.29 -118.96" stroke="#1e1e1e" stroke-width="2" fill="none"></path></g></g><mask id="mask-_gRyfy67v9ptf9YQmmyY8"><rect x="0" y="0" fill="#fff" width="745.4494294992332" height="582.1769458383419"></rect><rect x="621.3731390607602" y="276.2942364595855" fill="#000" width="47.31996154785156" height="50" opacity="1"></rect></mask><g transform="translate(621.3731390607602 276.2942364595855) rotate(0 23.938794537861213 25.43406861722471)"><text x="23.65998077392578" y="0" font-family="Virgil, Segoe UI Emoji" font-size="20px" fill="#1e1e1e" text-anchor="middle" style="white-space: pre;" direction="ltr" dominant-baseline="text-before-edge">TCP,</text><text x="23.65998077392578" y="25" font-family="Virgil, Segoe UI Emoji" font-size="20px" fill="#1e1e1e" text-anchor="middle" style="white-space: pre;" direction="ltr" dominant-baseline="text-before-edge">11111 </text></g><g mask="url(#mask-Gxr1YNs2fVVsxkliXD9d6)" stroke-linecap="round"><g transform="translate(757.815988167664 152.60358973502872) rotate(0 220 -11.916195543291707)"><path d="M0.63 0.33 C73.64 -3.8, 365.9 -19.74, 439.09 -23.87 M-0.5 -0.54 C72.79 -4.55, 368.09 -18.54, 441.33 -22.36" stroke="#1e1e1e" stroke-width="2" fill="none"></path></g><g transform="translate(757.815988167664 152.60358973502872) rotate(0 220 -11.916195543291707)"><path d="M418.29 -12.66 C427.74 -18.07, 436.1 -20.68, 441.33 -22.36 M418.29 -12.66 C423.26 -15.2, 430.3 -17.88, 441.33 -22.36" stroke="#1e1e1e" stroke-width="2" fill="none"></path></g><g transform="translate(757.815988167664 152.60358973502872) rotate(0 220 -11.916195543291707)"><path d="M417.44 -29.74 C427.35 -28.5, 436.04 -24.46, 441.33 -22.36 M417.44 -29.74 C422.74 -28.02, 429.98 -26.46, 441.33 -22.36" stroke="#1e1e1e" stroke-width="2" fill="none"></path></g></g><mask id="mask-Gxr1YNs2fVVsxkliXD9d6"><rect x="0" y="0" fill="#fff" width="1297.815988167664" height="276.43598082161213"></rect><rect x="911.5760284508669" y="128.18739419173698" fill="#000" width="132.47991943359375" height="25" opacity="1"></rect></mask><g transform="translate(911.5760284508669 128.18739419173698) rotate(0 66.65698994756679 12.644497600197809)"><text x="66.23995971679688" y="0" font-family="Virgil, Segoe UI Emoji" font-size="20px" fill="#1e1e1e" text-anchor="middle" style="white-space: pre;" direction="ltr" dominant-baseline="text-before-edge">HTTP, 10002</text></g><g mask="url(#mask-3JNtjn6Ps6p2FQtHsn1h3)" stroke-linecap="round"><g transform="translate(758.815988167664 439) rotate(0 221.5 -106)"><path d="M0.99 -1.06 C74.92 -36.2, 369.89 -176.12, 443.66 -211.47 M0.05 1 C73.87 -34.45, 369.21 -177.74, 443.06 -213.32" stroke="#1e1e1e" stroke-width="2" fill="none"></path></g><g transform="translate(758.815988167664 439) rotate(0 221.5 -106)"><path d="M425.64 -195.4 C429.35 -199.98, 437.38 -205.6, 443.06 -213.32 M425.64 -195.4 C428.96 -199.96, 431.54 -203.51, 443.06 -213.32" stroke="#1e1e1e" stroke-width="2" fill="none"></path></g><g transform="translate(758.815988167664 439) rotate(0 221.5 -106)"><path d="M418.19 -210.79 C424.13 -210.68, 434.46 -211.54, 443.06 -213.32 M418.19 -210.79 C423.14 -212.22, 427.22 -212.66, 443.06 -213.32" stroke="#1e1e1e" stroke-width="2" fill="none"></path></g></g><mask id="mask-3JNtjn6Ps6p2FQtHsn1h3"><rect x="0" y="0" fill="#fff" width="1301.815988167664" height="751"></rect><rect x="914.0760284508669" y="320.5" fill="#000" width="132.47991943359375" height="25" opacity="1"></rect></mask><g transform="translate(914.0760284508669 320.5) rotate(0 66.59692209043067 12.33728858246468)"><text x="66.23995971679688" y="0" font-family="Virgil, Segoe UI Emoji" font-size="20px" fill="#1e1e1e" text-anchor="middle" style="white-space: pre;" direction="ltr" dominant-baseline="text-before-edge">HTTP, 10002</text></g><g mask="url(#mask-JNhNVQQp-RIYxu-GS7HNS)" stroke-linecap="round"><g transform="translate(489.81598816766405 631) rotate(0 -0.5 -54)"><path d="M-0.35 0.11 C-0.61 -17.86, -1.74 -89.84, -1.89 -107.99 M1.66 -0.87 C1.82 -18.63, 0.99 -88.62, 0.35 -106.45" stroke="#1e1e1e" stroke-width="2" fill="none"></path></g><g transform="translate(489.81598816766405 631) rotate(0 -0.5 -54)"><path d="M9.41 -83.15 C7.19 -90.93, 4.58 -96.12, 0.35 -106.45 M9.41 -83.15 C6.81 -88.83, 4.33 -94.47, 0.35 -106.45" stroke="#1e1e1e" stroke-width="2" fill="none"></path></g><g transform="translate(489.81598816766405 631) rotate(0 -0.5 -54)"><path d="M-7.69 -82.78 C-5.31 -90.61, -3.32 -95.9, 0.35 -106.45 M-7.69 -82.78 C-6.26 -88.54, -4.72 -94.27, 0.35 -106.45" stroke="#1e1e1e" stroke-width="2" fill="none"></path></g></g><mask id="mask-JNhNVQQp-RIYxu-GS7HNS"><rect x="0" y="0" fill="#fff" width="590.815988167664" height="839"></rect><rect x="428.65603028192186" y="564.5" fill="#000" width="121.31991577148438" height="25" opacity="1"></rect></mask><g transform="translate(428.65603028192186 564.5) rotate(0 61.05474188905589 12.560073962807621)"><text x="60.65995788574219" y="0" font-family="Virgil, Segoe UI Emoji" font-size="20px" fill="#1e1e1e" text-anchor="middle" style="white-space: pre;" direction="ltr" dominant-baseline="text-before-edge">HTTP, 8081</text></g><g stroke-linecap="round" transform="translate(536.815988167664 411) rotate(0 31.5 31)"><path d="M45.04 2.7 C50.87 5.12, 58.41 12.12, 61.08 18.27 C63.74 24.41, 63.28 33.04, 61.02 39.59 C58.76 46.14, 53.3 53.71, 47.54 57.56 C41.78 61.41, 33.11 63.78, 26.46 62.68 C19.81 61.58, 12.04 55.88, 7.65 50.97 C3.26 46.06, 0.45 39.53, 0.12 33.22 C-0.21 26.92, 1.55 18.46, 5.65 13.14 C9.74 7.81, 17.05 2.32, 24.68 1.26 C32.31 0.2, 46.26 4.76, 51.44 6.76 C56.62 8.77, 55.91 12.83, 55.74 13.31 M29.55 0.76 C36.15 0.54, 46.48 4.04, 51.72 7.81 C56.95 11.58, 59.77 17.1, 60.94 23.39 C62.12 29.68, 61.8 39.35, 58.76 45.56 C55.71 51.77, 48.99 58.33, 42.67 60.65 C36.35 62.97, 26.96 61.92, 20.81 59.49 C14.66 57.05, 9.03 51.75, 5.79 46.04 C2.55 40.33, 0.47 31.47, 1.34 25.23 C2.22 18.99, 5.98 12.73, 11.03 8.58 C16.09 4.44, 28.58 1.47, 31.67 0.36 C34.76 -0.75, 29.72 1.37, 29.57 1.92" stroke="none" stroke-width="0" fill="#ffec99"></path><path d="M36.05 0.79 C42.41 1.3, 49.97 5.65, 54.36 10.44 C58.74 15.23, 62.1 22.99, 62.35 29.52 C62.61 36.05, 60.07 44.44, 55.9 49.63 C51.72 54.82, 43.68 59.35, 37.3 60.66 C30.93 61.96, 23.44 60.47, 17.65 57.46 C11.85 54.45, 5.28 48.51, 2.53 42.58 C-0.21 36.65, -0.9 28.09, 1.16 21.88 C3.23 15.66, 8.12 8.56, 14.93 5.31 C21.73 2.06, 36.35 2.35, 42.01 2.37 C47.67 2.39, 48.97 4.92, 48.89 5.42 M21.73 0.77 C27.65 -1.18, 36.96 -0.45, 43.28 2.12 C49.6 4.69, 56.38 10.32, 59.65 16.2 C62.91 22.08, 64.32 30.54, 62.85 37.39 C61.39 44.23, 56.6 53.02, 50.86 57.25 C45.12 61.48, 35.1 63.68, 28.4 62.77 C21.7 61.86, 15.2 56.61, 10.65 51.81 C6.11 47.01, 1.95 40.38, 1.13 33.97 C0.3 27.55, 2.22 18.67, 5.69 13.31 C9.16 7.94, 19.15 3.78, 21.93 1.78 C24.72 -0.22, 22.17 0.87, 22.4 1.32" stroke="#1e1e1e" stroke-width="2" fill="none"></path></g><g transform="translate(555.0821331052098 429.5796897832171) rotate(0 13.459991455078125 12.5)"><text x="13.459991455078125" y="0" font-family="Virgil, Segoe UI Emoji" font-size="20px" fill="#1e1e1e" text-anchor="middle" style="white-space: pre;" direction="ltr" dominant-baseline="text-before-edge">J2</text></g><g stroke-linecap="round" transform="translate(661.815988167664 389) rotate(0 29.5 32)"><path d="M34.11 0.67 C40.23 1.23, 48.2 5.16, 52.31 10.22 C56.41 15.29, 58.83 24.16, 58.73 31.05 C58.62 37.95, 55.63 46.23, 51.67 51.57 C47.71 56.91, 40.86 61.58, 34.96 63.07 C29.06 64.57, 21.91 63.83, 16.27 60.55 C10.64 57.27, 3.47 49.99, 1.15 43.4 C-1.18 36.8, 0.08 27.34, 2.33 20.99 C4.58 14.63, 7.95 8.3, 14.63 5.27 C21.3 2.25, 36.92 2.39, 42.39 2.83 C47.86 3.28, 47.85 7.53, 47.45 7.95 M25.45 0.17 C31.32 -1.02, 39.33 0.59, 44.61 4.42 C49.9 8.25, 55.25 16.36, 57.15 23.16 C59.06 29.97, 58.25 39.14, 56.05 45.23 C53.84 51.32, 49.22 56.69, 43.9 59.7 C38.58 62.71, 30.22 64.65, 24.12 63.29 C18.02 61.93, 11.11 56.92, 7.3 51.55 C3.49 46.18, 1.19 37.9, 1.24 31.08 C1.28 24.27, 3.3 15.96, 7.55 10.64 C11.81 5.32, 23.74 0.95, 26.76 -0.86 C29.78 -2.66, 25.77 -0.84, 25.68 -0.18" stroke="none" stroke-width="0" fill="#ffec99"></path><path d="M34.57 -0.42 C40.46 0.29, 47.42 5.86, 51.6 11.38 C55.79 16.91, 59.64 25.98, 59.68 32.74 C59.73 39.5, 56.19 46.84, 51.86 51.95 C47.53 57.05, 39.75 61.99, 33.7 63.35 C27.65 64.71, 20.77 63.53, 15.55 60.13 C10.34 56.72, 4.79 49.39, 2.43 42.9 C0.08 36.41, -0.6 27.67, 1.45 21.17 C3.49 14.66, 7.99 6.89, 14.69 3.86 C21.4 0.84, 36.21 2.5, 41.68 3.01 C47.14 3.52, 47.7 6.52, 47.48 6.9 M19.93 2.15 C25.76 -0.15, 34.86 -0.12, 40.54 2.5 C46.23 5.11, 50.86 11.74, 54.03 17.83 C57.2 23.92, 60.41 32.41, 59.56 39.05 C58.71 45.68, 54.09 53.47, 48.94 57.62 C43.78 61.77, 35.32 64.04, 28.64 63.93 C21.95 63.82, 13.67 61.55, 8.82 56.97 C3.97 52.4, 0.35 43.35, -0.47 36.48 C-1.28 29.61, 0.59 21.49, 3.96 15.76 C7.32 10.03, 17.01 4.13, 19.71 2.09 C22.42 0.06, 19.97 3.08, 20.17 3.56" stroke="#1e1e1e" stroke-width="2" fill="none"></path></g><g transform="translate(679.3763439210006 408.3725830020305) rotate(0 12.079994201660156 12.5)"><text x="12.079994201660156" y="0" font-family="Virgil, Segoe UI Emoji" font-size="20px" fill="#1e1e1e" text-anchor="middle" style="white-space: pre;" direction="ltr" dominant-baseline="text-before-edge">L9</text></g><g stroke-linecap="round" transform="translate(515.315988167664 160) rotate(0 34.5 36.5)"><path d="M24.99 1.8 C31.12 -0.61, 40.64 -0.13, 46.84 2.31 C53.05 4.74, 58.62 10.63, 62.22 16.43 C65.82 22.23, 68.56 29.91, 68.46 37.1 C68.36 44.3, 65.76 53.71, 61.62 59.6 C57.48 65.49, 49.99 70.67, 43.61 72.44 C37.23 74.2, 29.53 72.74, 23.35 70.2 C17.16 67.65, 10.28 63.04, 6.47 57.16 C2.66 51.28, 0.48 42.09, 0.48 34.93 C0.49 27.77, 2.21 19.87, 6.5 14.18 C10.79 8.49, 22.73 2.84, 26.22 0.8 C29.71 -1.24, 27.32 1.4, 27.42 1.94 M18.79 3.51 C24.42 0.46, 35.59 0.43, 42.17 1.81 C48.75 3.19, 53.81 6.62, 58.26 11.8 C62.72 16.97, 67.89 25.63, 68.88 32.87 C69.87 40.1, 67.72 49.16, 64.2 55.21 C60.69 61.26, 53.56 66.39, 47.78 69.16 C42 71.94, 36.14 73.25, 29.54 71.85 C22.95 70.46, 13 65.99, 8.19 60.79 C3.38 55.6, 1.51 47.61, 0.69 40.68 C-0.14 33.75, 0.09 25.25, 3.22 19.21 C6.34 13.16, 16.83 6.72, 19.43 4.43 C22.04 2.14, 18.32 4.81, 18.83 5.45" stroke="none" stroke-width="0" fill="#ffec99"></path><path d="M48.25 3.36 C54.48 5.27, 60.4 10.63, 63.81 16.52 C67.22 22.41, 69.26 31.47, 68.68 38.7 C68.1 45.93, 64.72 54.45, 60.32 59.89 C55.92 65.32, 48.79 69.58, 42.28 71.3 C35.77 73.01, 27.52 72.85, 21.25 70.17 C14.98 67.5, 8.23 61.24, 4.65 55.25 C1.07 49.26, -0.73 41.21, -0.21 34.26 C0.3 27.3, 3.23 19.14, 7.74 13.53 C12.26 7.92, 19.75 2.19, 26.88 0.58 C34.01 -1.03, 46.26 3, 50.52 3.85 C54.79 4.71, 52.7 5.13, 52.47 5.72 M31.39 0.05 C37.55 -0.98, 46.24 2.13, 52.05 6.05 C57.87 9.96, 63.7 17.04, 66.29 23.55 C68.89 30.05, 69.3 38.09, 67.61 45.07 C65.92 52.05, 61.49 60.71, 56.15 65.42 C50.81 70.13, 42.11 73.12, 35.57 73.31 C29.03 73.5, 22.28 70.34, 16.91 66.56 C11.55 62.78, 5.87 57.36, 3.38 50.62 C0.88 43.89, 0.5 33.28, 1.92 26.14 C3.35 19, 6.64 12.08, 11.92 7.77 C17.21 3.46, 29.97 1.55, 33.61 0.28 C37.26 -0.99, 34.01 -0.35, 33.82 0.13" stroke="#1e1e1e" stroke-width="2" fill="none"></path></g><g transform="translate(538.3508121512984 184.19060248669103) rotate(0 11.569992065429688 12.5)"><text x="11.569992065429688" y="0" font-family="Virgil, Segoe UI Emoji" font-size="20px" fill="#1e1e1e" text-anchor="middle" style="white-space: pre;" direction="ltr" dominant-baseline="text-before-edge">V4</text></g><g stroke-linecap="round" transform="translate(595.315988167664 130) rotate(0 35.5 37)"><path d="M18.55 4.84 C23.97 1.11, 33.17 -0.48, 40.02 0.49 C46.88 1.47, 54.77 5.75, 59.69 10.69 C64.6 15.62, 68.19 23.07, 69.53 30.09 C70.86 37.11, 70.57 46.3, 67.69 52.79 C64.8 59.27, 58.34 65.44, 52.2 69 C46.06 72.55, 37.68 75.13, 30.83 74.11 C23.97 73.08, 15.99 67.93, 11.06 62.84 C6.14 57.76, 2.44 50.62, 1.25 43.59 C0.07 36.57, 0.79 27.23, 3.95 20.71 C7.11 14.2, 17.15 7.48, 20.23 4.5 C23.3 1.53, 21.98 2.4, 22.38 2.88 M34.74 -1.2 C41.23 -1.48, 51.25 2.77, 56.89 7.24 C62.52 11.7, 66.68 18.47, 68.55 25.58 C70.42 32.68, 70.28 43.15, 68.13 49.89 C65.99 56.64, 61.12 61.97, 55.69 66.06 C50.26 70.16, 42.49 74.47, 35.56 74.46 C28.62 74.46, 19.64 70.5, 14.09 66.06 C8.53 61.61, 4.06 54.31, 2.23 47.78 C0.4 41.25, 0.85 33.91, 3.12 26.88 C5.38 19.86, 10.51 10.23, 15.81 5.63 C21.11 1.03, 31.85 0.15, 34.93 -0.7 C38.01 -1.55, 34.42 -0.18, 34.29 0.52" stroke="none" stroke-width="0" fill="#ffec99"></path><path d="M40.81 1 C47.21 1.58, 55.54 5.47, 60.49 10.72 C65.44 15.98, 69.54 25.13, 70.51 32.54 C71.49 39.96, 69.49 49.05, 66.35 55.22 C63.2 61.4, 57.71 66.53, 51.63 69.59 C45.55 72.65, 36.74 74.8, 29.88 73.59 C23.02 72.37, 15.5 67.53, 10.45 62.31 C5.41 57.08, 0.69 49.38, -0.39 42.24 C-1.48 35.1, 0.67 25.77, 3.94 19.45 C7.21 13.13, 12.11 7.32, 19.21 4.33 C26.32 1.33, 41.27 1.26, 46.55 1.49 C51.82 1.72, 51.04 5.13, 50.86 5.69 M34.42 0.31 C40.85 -0.17, 51.02 3.77, 56.75 8.22 C62.48 12.66, 66.97 20.31, 68.8 27 C70.63 33.69, 69.6 41.76, 67.73 48.36 C65.87 54.96, 63.23 62.44, 57.61 66.6 C52 70.75, 41.16 73.32, 34.03 73.28 C26.9 73.23, 20.39 70.48, 14.82 66.33 C9.25 62.19, 2.84 55.1, 0.62 48.41 C-1.61 41.73, -0.69 32.93, 1.48 26.23 C3.65 19.53, 7.69 12.32, 13.62 8.2 C19.55 4.07, 33.44 2.81, 37.07 1.48 C40.7 0.14, 35.6 -0.25, 35.4 0.18" stroke="#1e1e1e" stroke-width="2" fill="none"></path></g><g transform="translate(617.263708116694 154.33704909609776) rotate(0 13.449989318847656 12.5)"><text x="13.449989318847656" y="0" font-family="Virgil, Segoe UI Emoji" font-size="20px" fill="#1e1e1e" text-anchor="middle" style="white-space: pre;" direction="ltr" dominant-baseline="text-before-edge">B5</text></g><g stroke-linecap="round" transform="translate(685.315988167664 147) rotate(0 29.5 32)"><path d="M15.38 4.25 C20.32 0.77, 29.08 -0.56, 35.23 0.83 C41.38 2.22, 48.48 7.3, 52.29 12.6 C56.09 17.9, 58.16 25.91, 58.06 32.64 C57.97 39.37, 55.78 47.93, 51.71 53 C47.64 58.06, 39.9 61.93, 33.64 63.04 C27.37 64.14, 19.45 63.28, 14.12 59.62 C8.78 55.97, 3.52 47.7, 1.64 41.12 C-0.24 34.55, 0.2 26.55, 2.83 20.17 C5.47 13.79, 14.8 5.59, 17.43 2.87 C20.07 0.15, 18.46 3.45, 18.63 3.85 M41.8 1.23 C47.24 3.1, 51.93 9.55, 54.76 15.82 C57.6 22.09, 60.14 31.94, 58.82 38.84 C57.51 45.74, 52.15 52.78, 46.9 57.21 C41.64 61.63, 33.61 65.78, 27.31 65.39 C21.01 65, 13.58 59.6, 9.09 54.85 C4.6 50.09, 1.24 43.65, 0.39 36.87 C-0.46 30.09, 0.58 20.14, 4 14.15 C7.42 8.17, 14.61 2.68, 20.94 0.94 C27.26 -0.8, 38.53 3.62, 41.96 3.72 C45.39 3.82, 42.03 1.39, 41.51 1.54" stroke="none" stroke-width="0" fill="#ffec99"></path><path d="M35.82 1.51 C41.76 2.77, 48.49 8.25, 52.43 13.47 C56.38 18.69, 59.62 26.11, 59.5 32.83 C59.38 39.56, 56 48.74, 51.71 53.82 C47.42 58.9, 40.22 62.45, 33.74 63.31 C27.26 64.18, 18.28 62.66, 12.85 59 C7.41 55.33, 3.02 47.79, 1.14 41.33 C-0.73 34.87, -0.81 26.62, 1.58 20.24 C3.98 13.87, 9.65 6.12, 15.5 3.07 C21.35 0.03, 32.83 2.2, 36.67 1.97 C40.51 1.74, 38.54 1.17, 38.55 1.7 M40.83 3.37 C46.67 5.6, 52.39 12.42, 55.06 18.27 C57.74 24.11, 57.89 32.03, 56.88 38.45 C55.88 44.88, 53.98 52.67, 49.03 56.8 C44.07 60.94, 33.64 63.51, 27.14 63.25 C20.65 63, 14.72 59.7, 10.07 55.25 C5.42 50.8, 0.21 43.13, -0.77 36.56 C-1.74 30, 0.87 21.48, 4.21 15.86 C7.55 10.23, 12.98 4.82, 19.28 2.82 C25.57 0.82, 38.51 3.93, 41.98 3.86 C45.44 3.8, 40.47 2.11, 40.08 2.42" stroke="#1e1e1e" stroke-width="2" fill="none"></path></g><g transform="translate(705.8063442261764 166.37258300203047) rotate(0 9.149993896484375 12.5)"><text x="9.149993896484375" y="0" font-family="Virgil, Segoe UI Emoji" font-size="20px" fill="#1e1e1e" text-anchor="middle" style="white-space: pre;" direction="ltr" dominant-baseline="text-before-edge">C1</text></g><g mask="url(#mask-vjDa8Hnh53DZ_ZnZM14WE)" stroke-linecap="round"><g transform="translate(580.9440803883087 631.2920506282198) rotate(0 -6 -78.5)"><path d="M0.74 -1 C-1.61 -27.41, -11.04 -131.89, -13.17 -157.89 M-0.33 1.09 C-2.41 -25.25, -8.99 -130.69, -11.07 -156.82" stroke="#1e1e1e" stroke-width="2" fill="none"></path></g><g transform="translate(580.9440803883087 631.2920506282198) rotate(0 -6 -78.5)"><path d="M-9.87 -23.64 C-7.41 -17.07, -3.2 -6.61, 0.74 -1 M-9.87 -23.64 C-7.46 -16.11, -4.59 -9.5, 0.74 -1" stroke="#1e1e1e" stroke-width="2" fill="none"></path></g><g transform="translate(580.9440803883087 631.2920506282198) rotate(0 -6 -78.5)"><path d="M7.17 -25.16 C3.18 -17.91, 0.93 -6.88, 0.74 -1 M7.17 -25.16 C4.47 -17.07, 2.24 -10, 0.74 -1" stroke="#1e1e1e" stroke-width="2" fill="none"></path></g><g transform="translate(580.9440803883087 631.2920506282198) rotate(0 -6 -78.5)"><path d="M-0.9 -133.98 C-6.53 -144.52, -10.2 -151.29, -11.07 -156.82 M-0.9 -133.98 C-4.47 -139.92, -7.82 -146.92, -11.07 -156.82" stroke="#1e1e1e" stroke-width="2" fill="none"></path></g><g transform="translate(580.9440803883087 631.2920506282198) rotate(0 -6 -78.5)"><path d="M-17.96 -132.79 C-17.13 -143.88, -14.33 -151.11, -11.07 -156.82 M-17.96 -132.79 C-16.42 -139.2, -14.66 -146.55, -11.07 -156.82" stroke="#1e1e1e" stroke-width="2" fill="none"></path></g></g><mask id="mask-vjDa8Hnh53DZ_ZnZM14WE"><rect x="0" y="0" fill="#fff" width="692.9440803883087" height="888.2920506282198"></rect><rect x="524.774105107547" y="540.2920506282198" fill="#000" width="100.33995056152344" height="25" opacity="1"></rect></mask><g transform="translate(524.774105107547 540.2920506282198) rotate(0 49.956436190009185 12.59866661101114)"><text x="50.16997528076172" y="0" font-family="Virgil, Segoe UI Emoji" font-size="20px" fill="#1e1e1e" text-anchor="middle" style="white-space: pre;" direction="ltr" dominant-baseline="text-before-edge">WS, 8080</text></g><g mask="url(#mask-TtHinGmbL5-QrIE0elqX7)" stroke-linecap="round"><g transform="translate(598.815988167664 450) rotate(0 302 107)"><path d="M-0.82 -1.01 C99.84 34.83, 503.95 178.03, 604.81 214.04 M0.95 1.08 C101.44 37.22, 503.82 180.24, 604.28 215.6" stroke="#1e1e1e" stroke-width="2" fill="none"></path></g><g transform="translate(598.815988167664 450) rotate(0 302 107)"><path d="M24.18 -1.21 C13.17 0.04, 5.6 -0.69, -0.82 -1.01 M24.18 -1.21 C14.99 -0.31, 4.49 -1.77, -0.82 -1.01" stroke="#1e1e1e" stroke-width="2" fill="none"></path></g><g transform="translate(598.815988167664 450) rotate(0 302 107)"><path d="M18.46 14.91 C9.72 10.19, 4.28 3.45, -0.82 -1.01 M18.46 14.91 C11.33 9.63, 3.03 1.96, -0.82 -1.01" stroke="#1e1e1e" stroke-width="2" fill="none"></path></g><g transform="translate(598.815988167664 450) rotate(0 302 107)"><path d="M579.29 215.82 C586.93 217.25, 598 216.37, 604.28 215.6 M579.29 215.82 C589.36 216.8, 598.12 215.18, 604.28 215.6" stroke="#1e1e1e" stroke-width="2" fill="none"></path></g><g transform="translate(598.815988167664 450) rotate(0 302 107)"><path d="M584.99 199.7 C590.37 207.1, 599.31 212.23, 604.28 215.6 M584.99 199.7 C593.01 206.86, 599.57 211.46, 604.28 215.6" stroke="#1e1e1e" stroke-width="2" fill="none"></path></g></g><mask id="mask-TtHinGmbL5-QrIE0elqX7"><rect x="0" y="0" fill="#fff" width="1302.815988167664" height="764"></rect><rect x="853.6460052575076" y="544.5" fill="#000" width="94.3399658203125" height="25" opacity="1"></rect></mask><g transform="translate(853.6460052575076 544.5) rotate(0 47.16452859342098 12.793571297372694)"><text x="47.16998291015625" y="0" font-family="Virgil, Segoe UI Emoji" font-size="20px" fill="#1e1e1e" text-anchor="middle" style="white-space: pre;" direction="ltr" dominant-baseline="text-before-edge">WS, 10010</text></g></svg>