<svg version="1.1" xmlns="http://www.w3.org/2000/svg" viewBox="0 0 1866.6265365060046 970" width="1866.6265365060046" height="970">
  <!-- svg-source:excalidraw -->
  
  <defs>
    <style class="style-fonts">
      @font-face {
        font-family: "Virgil";
        src: url("https://excalidraw.com/Virgil.woff2");
      }
      @font-face {
        font-family: "Cascadia";
        src: url("https://excalidraw.com/Cascadia.woff2");
      }
      @font-face {
        font-family: "Assistant";
        src: url("https://excalidraw.com/Assistant-Regular.woff2");
      }
    </style>
    
  </defs>
  <rect x="0" y="0" width="1866.6265365060046" height="970" fill="#ffffff"></rect><g stroke-linecap="round" transform="translate(397.81598816766405 10) rotate(0 240 475)"><path d="M32 0 C168.11 0.06, 302.82 0.06, 448 0 M32 0 C188.15 1.35, 344.57 1.94, 448 0 M448 0 C468.85 0.66, 479.89 12.24, 480 32 M448 0 C467.09 0.24, 480.37 11.24, 480 32 M480 32 C483.09 369.83, 482.19 708.66, 480 918 M480 32 C481.97 311.28, 482.43 591.52, 480 918 M480 918 C481.44 939.18, 468.17 951.24, 448 950 M480 918 C479.56 941.47, 469.67 950.78, 448 950 M448 950 C333.87 949.19, 220.1 948.78, 32 950 M448 950 C312.83 948.41, 177.22 948.54, 32 950 M32 950 C11.15 948.53, 1.05 940.3, 0 918 M32 950 C12.17 949.02, 0.56 937.71, 0 918 M0 918 C-1.88 589.08, -2.16 259.31, 0 32 M0 918 C-3.6 566.04, -3.54 213.65, 0 32 M0 32 C1.01 8.91, 11.12 -0.04, 32 0 M0 32 C0.16 10.04, 8.95 0.33, 32 0" stroke="#1e1e1e" stroke-width="2" fill="none"></path></g><g transform="translate(402.81598816766405 15) rotate(0 57.12994384765625 12.5)"><text x="0" y="0" font-family="Virgil, Segoe UI Emoji" font-size="20px" fill="#1e1e1e" text-anchor="start" style="white-space: pre;" direction="ltr" dominant-baseline="text-before-edge">k8s cluster</text></g><g stroke-linecap="round" transform="translate(1240.815988167664 77) rotate(0 116.5 112)"><path d="M32 0 C73.71 -2.35, 110.12 -3.26, 201 0 C224.04 1, 231.47 12.97, 233 32 C235.85 70.62, 233.6 114.46, 233 192 C229.91 212.94, 219.56 225.1, 201 224 C137.8 225.62, 67.74 222.45, 32 224 C9.06 221.6, -1.7 212.06, 0 192 C-1.04 142.17, -0.74 100.96, 0 32 C1.39 7.38, 7.17 0.69, 32 0" stroke="none" stroke-width="0" fill="#ffec99"></path><path d="M32 0 C84.61 1.63, 137.8 -0.1, 201 0 M32 0 C75.79 -1.77, 118.79 -1.7, 201 0 M201 0 C223.8 -0.56, 231.02 11.22, 233 32 M201 0 C222.35 -1.69, 231.76 9.12, 233 32 M233 32 C230.34 95.78, 231.47 155.54, 233 192 M233 32 C234.52 84, 235.01 136.51, 233 192 M233 192 C231.98 214.89, 221.66 224.66, 201 224 M233 192 C233.47 213.23, 223.39 222.43, 201 224 M201 224 C145.33 226.33, 90.16 225.07, 32 224 M201 224 C145.26 225.16, 88.94 224.62, 32 224 M32 224 C10.17 224.7, -0.33 212.29, 0 192 M32 224 C12.53 224.75, -0.3 211.79, 0 192 M0 192 C1.11 152.92, 2.2 111.07, 0 32 M0 192 C1.47 137.92, 1.64 85.14, 0 32 M0 32 C1.35 10.63, 10.63 -0.81, 32 0 M0 32 C0.72 10.29, 12.91 -0.77, 32 0" stroke="#1e1e1e" stroke-width="2" fill="none"></path></g><g transform="translate(1255.906076058289 176.5) rotate(0 101.409912109375 12.5)"><text x="101.409912109375" y="0" font-family="Virgil, Segoe UI Emoji" font-size="20px" fill="#1e1e1e" text-anchor="middle" style="white-space: pre;" direction="ltr" dominant-baseline="text-before-edge">azure table storage</text></g><g stroke-linecap="round" transform="translate(448.81598816766405 68) rotate(0 187 227.5)"><path d="M32 0 C153.56 1.82, 276.76 1.48, 342 0 C366.64 2.68, 370.46 7.18, 374 32 C373.15 183.73, 371.41 334.39, 374 423 C372.5 447.11, 364.86 455.05, 342 455 C254.83 456.2, 168.27 458.11, 32 455 C9.41 454.23, 3.06 443.94, 0 423 C-4.9 333.8, -3.42 239.03, 0 32 C-1.75 8.59, 10 0.92, 32 0" stroke="none" stroke-width="0" fill="#b2f2bb"></path><path d="M32 0 C111.09 -0.29, 189.15 -1.47, 342 0 M32 0 C153.03 -1.14, 275.7 -0.78, 342 0 M342 0 C361.44 -1.12, 373.55 9.41, 374 32 M342 0 C363.48 0.76, 374.92 9.57, 374 32 M374 32 C373.29 161.39, 372.01 293.03, 374 423 M374 32 C375.18 180.87, 375.51 330.51, 374 423 M374 423 C374.67 442.67, 365.12 453.09, 342 455 M374 423 C373.85 445.31, 363.26 454.68, 342 455 M342 455 C255.21 456.39, 168.18 455.97, 32 455 M342 455 C259.63 453.78, 177.53 454.08, 32 455 M32 455 C12.26 456.68, 1.71 444.24, 0 423 M32 455 C9.12 453.08, 1.14 445.77, 0 423 M0 423 C2.1 296.56, 2.02 171.73, 0 32 M0 423 C-0.93 278.23, -0.79 132.85, 0 32 M0 32 C1.98 11.43, 9.79 -1.87, 32 0 M0 32 C1.68 9.07, 11.37 -2.07, 32 0" stroke="#1e1e1e" stroke-width="2" fill="none"></path></g><g transform="translate(453.81598816766405 73) rotate(0 127.12987518310547 12.5)"><text x="0" y="0" font-family="Virgil, Segoe UI Emoji" font-size="20px" fill="#1e1e1e" text-anchor="start" style="white-space: pre;" direction="ltr" dominant-baseline="text-before-edge">ws-proxy (orleans cluster)</text></g><g stroke-linecap="round" transform="translate(1345.815988167664 486) rotate(0 113.5 116)"><path d="M32 0 C90.45 0.75, 158.13 3.19, 195 0 C217.57 -0.05, 225.72 10.51, 227 32 C228.87 71.33, 229.58 108.34, 227 200 C224.67 219.41, 216.75 233.86, 195 232 C161.01 232, 120.78 237.05, 32 232 C9.18 232.07, -3.13 222.67, 0 200 C-1.32 144.89, -2.84 86.57, 0 32 C-0.45 9.6, 12.26 -0.63, 32 0" stroke="none" stroke-width="0" fill="#a5d8ff"></path><path d="M32 0 C95.06 -1.18, 161.27 -0.8, 195 0 M32 0 C73.05 0.26, 116.66 -0.65, 195 0 M195 0 C215.03 -1.75, 226.59 10.32, 227 32 M195 0 C218.31 0.52, 224.75 8.57, 227 32 M227 32 C225.66 94.74, 225.35 159.42, 227 200 M227 32 C225.9 66.52, 225.36 103.04, 227 200 M227 200 C225.72 222.5, 217.65 232.42, 195 232 M227 200 C227.32 223.37, 217.8 231.2, 195 232 M195 232 C150.99 232.78, 103.02 234.29, 32 232 M195 232 C134.7 232.59, 73.87 231.66, 32 232 M32 232 C11.49 232.29, 1.76 223.03, 0 200 M32 232 C11.17 231.32, -0.32 220.85, 0 200 M0 200 C-2.31 135.76, -2.08 72.05, 0 32 M0 200 C0.38 155.66, 0.44 110.62, 0 32 M0 32 C1.53 12.42, 12.22 0.78, 32 0 M0 32 C0.46 11.07, 9.14 -2.13, 32 0" stroke="#1e1e1e" stroke-width="2" fill="none"></path></g><g transform="translate(1413.486039742371 589.5) rotate(0 45.82994842529297 12.5)"><text x="45.82994842529297" y="0" font-family="Virgil, Segoe UI Emoji" font-size="20px" fill="#1e1e1e" text-anchor="middle" style="white-space: pre;" direction="ltr" dominant-baseline="text-before-edge">ws-server</text></g><g stroke-linecap="round" transform="translate(450.81598816766405 632.5) rotate(0 185 138.5)"><path d="M32 0 C101.32 5.27, 175.04 3.85, 338 0 C358.51 -1, 370.77 9.56, 370 32 C367.19 84.49, 364.15 142.64, 370 245 C371.71 264.77, 359.56 280.24, 338 277 C264.68 275.82, 192.38 274.31, 32 277 C10.93 274.97, 2.24 262.78, 0 245 C1.61 177.92, 0.01 113.58, 0 32 C3.48 12.21, 10.38 -1.8, 32 0" stroke="none" stroke-width="0" fill="#ffc9c9"></path><path d="M32 0 C115.26 0.72, 197.43 0.59, 338 0 M32 0 C132.9 1.64, 232.51 1.53, 338 0 M338 0 C359.25 0.33, 370.68 10.55, 370 32 M338 0 C359.76 -0.04, 368.46 11.44, 370 32 M370 32 C368.91 105.58, 370.68 175.73, 370 245 M370 32 C367.46 95.77, 368.07 157.21, 370 245 M370 245 C370.82 265.14, 357.46 278.32, 338 277 M370 245 C371.98 267.01, 359.89 277.85, 338 277 M338 277 C269.87 274.63, 202.17 275.97, 32 277 M338 277 C233.08 277.99, 128.99 276.9, 32 277 M32 277 C9.07 275.56, -1.04 267.84, 0 245 M32 277 C11.73 276.35, -1.31 266.37, 0 245 M0 245 C1.02 180.14, 0.66 119.55, 0 32 M0 245 C-0.04 200.22, -0.02 157.49, 0 32 M0 32 C-1.46 10.77, 12.34 -0.38, 32 0 M0 32 C-1.69 11.67, 12.87 -1.63, 32 0" stroke="#1e1e1e" stroke-width="2" fill="none"></path></g><g transform="translate(565.3660675133672 758.5) rotate(0 70.44992065429688 12.5)"><text x="70.44992065429688" y="0" font-family="Virgil, Segoe UI Emoji" font-size="20px" fill="#1e1e1e" text-anchor="middle" style="white-space: pre;" direction="ltr" dominant-baseline="text-before-edge">ws-proxy-client</text></g><g stroke-linecap="round" transform="translate(497.81598816766405 110) rotate(0 129.5 65)"><path d="M32 0 C99.07 -4.66, 171.75 -4.95, 227 0 C250.81 -1.23, 258.4 8.95, 259 32 C257.85 51.57, 260.76 62.08, 259 98 C256.89 118.69, 249.29 130.78, 227 130 C181.15 126.93, 129.58 128.08, 32 130 C11.34 132.57, 2.61 117.83, 0 98 C2.59 81.93, -0.07 70.71, 0 32 C-3.36 10.91, 14.11 -0.46, 32 0" stroke="none" stroke-width="0" fill="#ffffff"></path><path d="M32 0 C75.06 1.88, 121.63 -0.72, 227 0 M32 0 C105.16 2.06, 180.31 2.61, 227 0 M227 0 C246.55 1.54, 259.77 10.83, 259 32 M227 0 C247.72 1.4, 259.86 11.98, 259 32 M259 32 C260.88 46.26, 257.62 59.27, 259 98 M259 32 C258.38 50.4, 258.51 68.94, 259 98 M259 98 C260.18 120.41, 248.69 128.42, 227 130 M259 98 C259.78 117.6, 247.9 131.64, 227 130 M227 130 C167.38 129.66, 102.71 127.22, 32 130 M227 130 C183.78 127.89, 141.83 128.4, 32 130 M32 130 C12.35 130.58, 0.55 118.35, 0 98 M32 130 C11.32 129.66, 2.05 118.16, 0 98 M0 98 C-0.7 76.96, -0.01 57.56, 0 32 M0 98 C-1.05 81.44, 0.48 63.99, 0 32 M0 32 C0.76 9.15, 10.72 -0.55, 32 0 M0 32 C-2.27 9.44, 11.55 2.27, 32 0" stroke="#1e1e1e" stroke-width="2" fill="none"></path></g><g transform="translate(502.81598816766405 115) rotate(0 23.499977111816406 12.5)"><text x="0" y="0" font-family="Virgil, Segoe UI Emoji" font-size="20px" fill="#1e1e1e" text-anchor="start" style="white-space: pre;" direction="ltr" dominant-baseline="text-before-edge">silo 1</text></g><g stroke-linecap="round" transform="translate(503.31598816766405 364) rotate(0 129.5 65)"><path d="M32 0 C84.01 -0.55, 141.84 -2.85, 227 0 C250.67 1.07, 256.23 12.43, 259 32 C258.49 58.2, 257.69 83.26, 259 98 C259.16 122.3, 248 127.71, 227 130 C156.97 127.31, 91.92 130.29, 32 130 C12.96 133.51, 0.63 117.74, 0 98 C0.5 75.6, -2.42 45.31, 0 32 C-2.41 11.95, 9.92 0.49, 32 0" stroke="none" stroke-width="0" fill="#ffffff"></path><path d="M32 0 C104.06 0.62, 173.66 2.15, 227 0 M32 0 C94.56 1.39, 154.37 0.69, 227 0 M227 0 C246.66 -0.52, 259.86 11.56, 259 32 M227 0 C250.11 1.2, 257.19 9.72, 259 32 M259 32 C258.52 52.52, 259.02 74.05, 259 98 M259 32 C258.5 58.52, 258.83 84.77, 259 98 M259 98 C260.48 118.2, 246.41 130.18, 227 130 M259 98 C260.14 119.53, 248.84 129.01, 227 130 M227 130 C181.56 129.67, 134.79 127.09, 32 130 M227 130 C173.67 129.44, 118.46 128.83, 32 130 M32 130 C10.85 129.46, -0.82 117.39, 0 98 M32 130 C12.24 130.33, 1.94 118.17, 0 98 M0 98 C-1 75.74, -0.94 55.47, 0 32 M0 98 C0.05 78.49, -0.42 60.72, 0 32 M0 32 C0.87 12.42, 8.82 -1.32, 32 0 M0 32 C2.02 10.33, 10.44 1.98, 32 0" stroke="#1e1e1e" stroke-width="2" fill="none"></path></g><g transform="translate(508.31598816766405 369) rotate(0 27.90997314453125 12.5)"><text x="0" y="0" font-family="Virgil, Segoe UI Emoji" font-size="20px" fill="#1e1e1e" text-anchor="start" style="white-space: pre;" direction="ltr" dominant-baseline="text-before-edge">silo 2</text></g><g mask="url(#mask-7bF7u23NT4nLJ4BjgVA1f)" stroke-linecap="round"><g transform="translate(437.81598816766405 282) rotate(0 -213.5 -2)"><path d="M0.18 -1.07 C-70.92 -1.77, -355.85 -4.32, -426.91 -4.78 M-1.18 0.98 C-72.41 0.47, -356.92 -3.09, -427.82 -3.64" stroke="#1e1e1e" stroke-width="2" fill="none"></path></g><g transform="translate(437.81598816766405 282) rotate(0 -213.5 -2)"><path d="M-23.38 7.27 C-18.62 5.07, -11.62 3.93, 0.18 -1.07 M-23.38 7.27 C-16.18 5.32, -7.4 2.09, 0.18 -1.07" stroke="#1e1e1e" stroke-width="2" fill="none"></path></g><g transform="translate(437.81598816766405 282) rotate(0 -213.5 -2)"><path d="M-23.23 -9.83 C-18.59 -7.3, -11.63 -3.73, 0.18 -1.07 M-23.23 -9.83 C-16.19 -6.34, -7.46 -4.14, 0.18 -1.07" stroke="#1e1e1e" stroke-width="2" fill="none"></path></g></g><mask id="mask-7bF7u23NT4nLJ4BjgVA1f"><rect x="0" y="0" fill="#fff" width="964.815988167664" height="386"></rect><rect x="134.59606324090623" y="255" fill="#000" width="179.43984985351562" height="50" opacity="1"></rect></mask><g transform="translate(134.59606324090623 255) rotate(0 89.40365184568338 25.102968913610113)"><text x="89.71992492675781" y="0" font-family="Virgil, Segoe UI Emoji" font-size="20px" fill="#1e1e1e" text-anchor="middle" style="white-space: pre;" direction="ltr" dominant-baseline="text-before-edge">HTTP, 5223</text><text x="89.71992492675781" y="25" font-family="Virgil, Segoe UI Emoji" font-size="20px" fill="#1e1e1e" text-anchor="middle" style="white-space: pre;" direction="ltr" dominant-baseline="text-before-edge">orleans dashboard</text></g><g mask="url(#mask-8kJPbSB43jKtSjOtOfLNL)" stroke-linecap="round"><g transform="translate(443.81598816766405 778) rotate(0 -173 -2.5)"><path d="M0.29 -0.26 C-57.35 -0.85, -287.07 -3.65, -344.83 -4.42 M-1.02 -1.44 C-58.8 -2.32, -287.47 -5.9, -345.17 -6.24" stroke="#1e1e1e" stroke-width="2" fill="none"></path></g><g transform="translate(443.81598816766405 778) rotate(0 -173 -2.5)"><path d="M-23.3 8.01 C-14.6 6.72, -4.11 1.11, 0.29 -0.26 M-23.3 8.01 C-16.09 5.46, -9.06 2.37, 0.29 -0.26" stroke="#1e1e1e" stroke-width="2" fill="none"></path></g><g transform="translate(443.81598816766405 778) rotate(0 -173 -2.5)"><path d="M-23.1 -9.09 C-14.59 -3.8, -4.19 -2.83, 0.29 -0.26 M-23.1 -9.09 C-15.8 -6.34, -8.83 -4.12, 0.29 -0.26" stroke="#1e1e1e" stroke-width="2" fill="none"></path></g></g><mask id="mask-8kJPbSB43jKtSjOtOfLNL"><rect x="0" y="0" fill="#fff" width="889.815988167664" height="883"></rect><rect x="205.746034249207" y="750.5" fill="#000" width="130.13990783691406" height="50" opacity="1"></rect></mask><g transform="translate(205.746034249207 750.5) rotate(0 65.63251467846794 24.25044648929969)"><text x="65.06995391845703" y="0" font-family="Virgil, Segoe UI Emoji" font-size="20px" fill="#1e1e1e" text-anchor="middle" style="white-space: pre;" direction="ltr" dominant-baseline="text-before-edge">HTTP, 8082</text><text x="65.06995391845703" y="25" font-family="Virgil, Segoe UI Emoji" font-size="20px" fill="#1e1e1e" text-anchor="middle" style="white-space: pre;" direction="ltr" dominant-baseline="text-before-edge">swagger</text></g><g mask="url(#mask-67tTeOfccwQrDrK4z1WL-)" stroke-linecap="round"><g transform="translate(583.3727522688475 244) rotate(0 -1.4999325736627043 57.270870978762446)"><path d="M-0.02 -0.97 C-0.46 18.1, -2.88 95.88, -3.38 115 M-1.49 1.13 C-2.06 19.8, -4.14 94.2, -4.53 113.12" stroke="#1e1e1e" stroke-width="2" fill="none"></path></g><g transform="translate(583.3727522688475 244) rotate(0 -1.4999325736627043 57.270870978762446)"><path d="M-12.49 89.43 C-12.1 94.47, -7.8 100.76, -4.53 113.12 M-12.49 89.43 C-10.61 95.57, -8.74 99.61, -4.53 113.12" stroke="#1e1e1e" stroke-width="2" fill="none"></path></g><g transform="translate(583.3727522688475 244) rotate(0 -1.4999325736627043 57.270870978762446)"><path d="M4.6 89.85 C0.89 94.79, 1.1 100.97, -4.53 113.12 M4.6 89.85 C2.47 96.01, 0.33 99.95, -4.53 113.12" stroke="#1e1e1e" stroke-width="2" fill="none"></path></g></g><mask id="mask-67tTeOfccwQrDrK4z1WL-"><rect x="0" y="0" fill="#fff" width="686.372617416173" height="458.5417419575249"></rect><rect x="558.2128389212592" y="276.27087097876245" fill="#000" width="47.31996154785156" height="50" opacity="1"></rect></mask><g transform="translate(558.2128389212592 276.27087097876245) rotate(0 22.88825101398379 24.743046584725363)"><text x="23.65998077392578" y="0" font-family="Virgil, Segoe UI Emoji" font-size="20px" fill="#1e1e1e" text-anchor="middle" style="white-space: pre;" direction="ltr" dominant-baseline="text-before-edge">TCP,</text><text x="23.65998077392578" y="25" font-family="Virgil, Segoe UI Emoji" font-size="20px" fill="#1e1e1e" text-anchor="middle" style="white-space: pre;" direction="ltr" dominant-baseline="text-before-edge">11111 </text></g><g mask="url(#mask-_gRyfy67v9ptf9YQmmyY8)" stroke-linecap="round"><g transform="translate(645.1718897228684 358.58847291917095) rotate(0 -0.13876988818242353 -57.29423645958548)"><path d="M1.17 0.81 C0.89 -18.25, -0.82 -95.31, -1.03 -114.53 M0.33 0.19 C0.38 -18.65, 1.47 -94.07, 1.29 -112.96" stroke="#1e1e1e" stroke-width="2" fill="none"></path></g><g transform="translate(645.1718897228684 358.58847291917095) rotate(0 -0.13876988818242353 -57.29423645958548)"><path d="M9.74 -89.43 C8.13 -98.93, 3.89 -105.67, 1.29 -112.96 M9.74 -89.43 C8.03 -97.12, 4.84 -104.05, 1.29 -112.96" stroke="#1e1e1e" stroke-width="2" fill="none"></path></g><g transform="translate(645.1718897228684 358.58847291917095) rotate(0 -0.13876988818242353 -57.29423645958548)"><path d="M-7.36 -89.5 C-2.92 -99.14, -1.1 -105.85, 1.29 -112.96 M-7.36 -89.5 C-3.84 -97.01, -1.8 -103.92, 1.29 -112.96" stroke="#1e1e1e" stroke-width="2" fill="none"></path></g></g><mask id="mask-_gRyfy67v9ptf9YQmmyY8"><rect x="0" y="0" fill="#fff" width="745.4494294992332" height="573.1769458383419"></rect><rect x="621.3731390607602" y="276.2942364595855" fill="#000" width="47.31996154785156" height="50" opacity="1"></rect></mask><g transform="translate(621.3731390607602 276.2942364595855) rotate(0 23.938794537861213 25.43406861722471)"><text x="23.65998077392578" y="0" font-family="Virgil, Segoe UI Emoji" font-size="20px" fill="#1e1e1e" text-anchor="middle" style="white-space: pre;" direction="ltr" dominant-baseline="text-before-edge">TCP,</text><text x="23.65998077392578" y="25" font-family="Virgil, Segoe UI Emoji" font-size="20px" fill="#1e1e1e" text-anchor="middle" style="white-space: pre;" direction="ltr" dominant-baseline="text-before-edge">11111 </text></g><g mask="url(#mask-Gxr1YNs2fVVsxkliXD9d6)" stroke-linecap="round"><g transform="translate(759.815988167664 160.24017457880962) rotate(0 239 -10.958856003695303)"><path d="M0.63 0.33 C79.97 -3.48, 397.57 -18.15, 477.09 -21.96 M-0.5 -0.54 C79.12 -4.23, 399.76 -16.94, 479.33 -20.44" stroke="#1e1e1e" stroke-width="2" fill="none"></path></g><g transform="translate(759.815988167664 160.24017457880962) rotate(0 239 -10.958856003695303)"><path d="M456.21 -10.92 C465.69 -16.26, 474.08 -18.8, 479.33 -20.44 M456.21 -10.92 C461.21 -13.42, 468.26 -16.06, 479.33 -20.44" stroke="#1e1e1e" stroke-width="2" fill="none"></path></g><g transform="translate(759.815988167664 160.24017457880962) rotate(0 239 -10.958856003695303)"><path d="M455.5 -28.01 C465.39 -26.7, 474.05 -22.58, 479.33 -20.44 M455.5 -28.01 C460.78 -26.25, 468.01 -24.64, 479.33 -20.44" stroke="#1e1e1e" stroke-width="2" fill="none"></path></g></g><mask id="mask-Gxr1YNs2fVVsxkliXD9d6"><rect x="0" y="0" fill="#fff" width="1337.815988167664" height="282.1578865862002"></rect><rect x="932.3360305870974" y="124.28131857511431" fill="#000" width="132.9599151611328" height="50" opacity="1"></rect></mask><g transform="translate(932.3360305870974 124.28131857511431) rotate(0 66.89698781133632 25.14449760019778)"><text x="66.4799575805664" y="0" font-family="Virgil, Segoe UI Emoji" font-size="20px" fill="#1e1e1e" text-anchor="middle" style="white-space: pre;" direction="ltr" dominant-baseline="text-before-edge">HTTP, 10022</text><text x="66.4799575805664" y="25" font-family="Virgil, Segoe UI Emoji" font-size="20px" fill="#1e1e1e" text-anchor="middle" style="white-space: pre;" direction="ltr" dominant-baseline="text-before-edge">clustering</text></g><g mask="url(#mask-3JNtjn6Ps6p2FQtHsn1h3)" stroke-linecap="round"><g transform="translate(764.815988167664 439) rotate(0 235.5 -107.37675199903359)"><path d="M0.99 -1.06 C79.58 -36.66, 393.23 -178.42, 471.66 -214.23 M0.05 1 C78.53 -34.91, 392.54 -180.04, 471.06 -216.08" stroke="#1e1e1e" stroke-width="2" fill="none"></path></g><g transform="translate(764.815988167664 439) rotate(0 235.5 -107.37675199903359)"><path d="M453.3 -198.48 C457.12 -202.96, 465.25 -208.49, 471.06 -216.08 M453.3 -198.48 C456.7 -202.97, 459.34 -206.46, 471.06 -216.08" stroke="#1e1e1e" stroke-width="2" fill="none"></path></g><g transform="translate(764.815988167664 439) rotate(0 235.5 -107.37675199903359)"><path d="M446.15 -214.01 C452.1 -213.75, 462.45 -214.47, 471.06 -216.08 M446.15 -214.01 C451.11 -215.35, 455.2 -215.69, 471.06 -216.08" stroke="#1e1e1e" stroke-width="2" fill="none"></path></g></g><mask id="mask-3JNtjn6Ps6p2FQtHsn1h3"><rect x="0" y="0" fill="#fff" width="1335.815988167664" height="753.7535039980671"></rect><rect x="933.8360305870974" y="306.62324800096644" fill="#000" width="132.9599151611328" height="50" opacity="1"></rect></mask><g transform="translate(933.8360305870974 306.62324800096644) rotate(0 66.8369199542002 24.83728858246465)"><text x="66.4799575805664" y="0" font-family="Virgil, Segoe UI Emoji" font-size="20px" fill="#1e1e1e" text-anchor="middle" style="white-space: pre;" direction="ltr" dominant-baseline="text-before-edge">HTTP, 10022</text><text x="66.4799575805664" y="25" font-family="Virgil, Segoe UI Emoji" font-size="20px" fill="#1e1e1e" text-anchor="middle" style="white-space: pre;" direction="ltr" dominant-baseline="text-before-edge">clustering</text></g><g mask="url(#mask-JNhNVQQp-RIYxu-GS7HNS)" stroke-linecap="round"><g transform="translate(492.81598816766405 624) rotate(0 1 -47)"><path d="M-0.35 0.11 C-0.11 -15.53, 0.76 -78.18, 1.11 -93.99 M1.66 -0.87 C2.32 -16.3, 3.49 -76.95, 3.35 -92.45" stroke="#1e1e1e" stroke-width="2" fill="none"></path></g><g transform="translate(492.81598816766405 624) rotate(0 1 -47)"><path d="M11.72 -68.89 C9.69 -76.74, 7.26 -82, 3.35 -92.45 M11.72 -68.89 C9.28 -74.64, 6.96 -80.34, 3.35 -92.45" stroke="#1e1e1e" stroke-width="2" fill="none"></path></g><g transform="translate(492.81598816766405 624) rotate(0 1 -47)"><path d="M-5.38 -69.02 C-2.82 -76.78, -0.64 -82.01, 3.35 -92.45 M-5.38 -69.02 C-3.79 -74.72, -2.08 -80.4, 3.35 -92.45" stroke="#1e1e1e" stroke-width="2" fill="none"></path></g></g><mask id="mask-JNhNVQQp-RIYxu-GS7HNS"><rect x="0" y="0" fill="#fff" width="594.815988167664" height="818"></rect><rect x="433.15603028192186" y="564.5" fill="#000" width="121.31991577148438" height="25" opacity="1"></rect></mask><g transform="translate(433.15603028192186 564.5) rotate(0 61.16493469249326 12.560073962807621)"><text x="60.65995788574219" y="0" font-family="Virgil, Segoe UI Emoji" font-size="20px" fill="#1e1e1e" text-anchor="middle" style="white-space: pre;" direction="ltr" dominant-baseline="text-before-edge">HTTP, 8081</text></g><g stroke-linecap="round" transform="translate(594.815988167664 419) rotate(0 31.5 31)"><path d="M45.04 2.7 C50.87 5.12, 58.41 12.12, 61.08 18.27 C63.74 24.41, 63.28 33.04, 61.02 39.59 C58.76 46.14, 53.3 53.71, 47.54 57.56 C41.78 61.41, 33.11 63.78, 26.46 62.68 C19.81 61.58, 12.04 55.88, 7.65 50.97 C3.26 46.06, 0.45 39.53, 0.12 33.22 C-0.21 26.92, 1.55 18.46, 5.65 13.14 C9.74 7.81, 17.05 2.32, 24.68 1.26 C32.31 0.2, 46.26 4.76, 51.44 6.76 C56.62 8.77, 55.91 12.83, 55.74 13.31 M29.55 0.76 C36.15 0.54, 46.48 4.04, 51.72 7.81 C56.95 11.58, 59.77 17.1, 60.94 23.39 C62.12 29.68, 61.8 39.35, 58.76 45.56 C55.71 51.77, 48.99 58.33, 42.67 60.65 C36.35 62.97, 26.96 61.92, 20.81 59.49 C14.66 57.05, 9.03 51.75, 5.79 46.04 C2.55 40.33, 0.47 31.47, 1.34 25.23 C2.22 18.99, 5.98 12.73, 11.03 8.58 C16.09 4.44, 28.58 1.47, 31.67 0.36 C34.76 -0.75, 29.72 1.37, 29.57 1.92" stroke="none" stroke-width="0" fill="#ffec99"></path><path d="M36.05 0.79 C42.41 1.3, 49.97 5.65, 54.36 10.44 C58.74 15.23, 62.1 22.99, 62.35 29.52 C62.61 36.05, 60.07 44.44, 55.9 49.63 C51.72 54.82, 43.68 59.35, 37.3 60.66 C30.93 61.96, 23.44 60.47, 17.65 57.46 C11.85 54.45, 5.28 48.51, 2.53 42.58 C-0.21 36.65, -0.9 28.09, 1.16 21.88 C3.23 15.66, 8.12 8.56, 14.93 5.31 C21.73 2.06, 36.35 2.35, 42.01 2.37 C47.67 2.39, 48.97 4.92, 48.89 5.42 M21.73 0.77 C27.65 -1.18, 36.96 -0.45, 43.28 2.12 C49.6 4.69, 56.38 10.32, 59.65 16.2 C62.91 22.08, 64.32 30.54, 62.85 37.39 C61.39 44.23, 56.6 53.02, 50.86 57.25 C45.12 61.48, 35.1 63.68, 28.4 62.77 C21.7 61.86, 15.2 56.61, 10.65 51.81 C6.11 47.01, 1.95 40.38, 1.13 33.97 C0.3 27.55, 2.22 18.67, 5.69 13.31 C9.16 7.94, 19.15 3.78, 21.93 1.78 C24.72 -0.22, 22.17 0.87, 22.4 1.32" stroke="#1e1e1e" stroke-width="2" fill="none"></path></g><g transform="translate(613.0821331052098 437.5796897832171) rotate(0 13.459991455078125 12.5)"><text x="13.459991455078125" y="0" font-family="Virgil, Segoe UI Emoji" font-size="20px" fill="#1e1e1e" text-anchor="middle" style="white-space: pre;" direction="ltr" dominant-baseline="text-before-edge">J2</text></g><g stroke-linecap="round" transform="translate(682.815988167664 373) rotate(0 29.5 32)"><path d="M34.11 0.67 C40.23 1.23, 48.2 5.16, 52.31 10.22 C56.41 15.29, 58.83 24.16, 58.73 31.05 C58.62 37.95, 55.63 46.23, 51.67 51.57 C47.71 56.91, 40.86 61.58, 34.96 63.07 C29.06 64.57, 21.91 63.83, 16.27 60.55 C10.64 57.27, 3.47 49.99, 1.15 43.4 C-1.18 36.8, 0.08 27.34, 2.33 20.99 C4.58 14.63, 7.95 8.3, 14.63 5.27 C21.3 2.25, 36.92 2.39, 42.39 2.83 C47.86 3.28, 47.85 7.53, 47.45 7.95 M25.45 0.17 C31.32 -1.02, 39.33 0.59, 44.61 4.42 C49.9 8.25, 55.25 16.36, 57.15 23.16 C59.06 29.97, 58.25 39.14, 56.05 45.23 C53.84 51.32, 49.22 56.69, 43.9 59.7 C38.58 62.71, 30.22 64.65, 24.12 63.29 C18.02 61.93, 11.11 56.92, 7.3 51.55 C3.49 46.18, 1.19 37.9, 1.24 31.08 C1.28 24.27, 3.3 15.96, 7.55 10.64 C11.81 5.32, 23.74 0.95, 26.76 -0.86 C29.78 -2.66, 25.77 -0.84, 25.68 -0.18" stroke="none" stroke-width="0" fill="#ffec99"></path><path d="M34.57 -0.42 C40.46 0.29, 47.42 5.86, 51.6 11.38 C55.79 16.91, 59.64 25.98, 59.68 32.74 C59.73 39.5, 56.19 46.84, 51.86 51.95 C47.53 57.05, 39.75 61.99, 33.7 63.35 C27.65 64.71, 20.77 63.53, 15.55 60.13 C10.34 56.72, 4.79 49.39, 2.43 42.9 C0.08 36.41, -0.6 27.67, 1.45 21.17 C3.49 14.66, 7.99 6.89, 14.69 3.86 C21.4 0.84, 36.21 2.5, 41.68 3.01 C47.14 3.52, 47.7 6.52, 47.48 6.9 M19.93 2.15 C25.76 -0.15, 34.86 -0.12, 40.54 2.5 C46.23 5.11, 50.86 11.74, 54.03 17.83 C57.2 23.92, 60.41 32.41, 59.56 39.05 C58.71 45.68, 54.09 53.47, 48.94 57.62 C43.78 61.77, 35.32 64.04, 28.64 63.93 C21.95 63.82, 13.67 61.55, 8.82 56.97 C3.97 52.4, 0.35 43.35, -0.47 36.48 C-1.28 29.61, 0.59 21.49, 3.96 15.76 C7.32 10.03, 17.01 4.13, 19.71 2.09 C22.42 0.06, 19.97 3.08, 20.17 3.56" stroke="#1e1e1e" stroke-width="2" fill="none"></path></g><g transform="translate(700.3763439210006 392.3725830020305) rotate(0 12.079994201660156 12.5)"><text x="12.079994201660156" y="0" font-family="Virgil, Segoe UI Emoji" font-size="20px" fill="#1e1e1e" text-anchor="middle" style="white-space: pre;" direction="ltr" dominant-baseline="text-before-edge">L9</text></g><g stroke-linecap="round" transform="translate(515.315988167664 160) rotate(0 34.5 36.5)"><path d="M24.99 1.8 C31.12 -0.61, 40.64 -0.13, 46.84 2.31 C53.05 4.74, 58.62 10.63, 62.22 16.43 C65.82 22.23, 68.56 29.91, 68.46 37.1 C68.36 44.3, 65.76 53.71, 61.62 59.6 C57.48 65.49, 49.99 70.67, 43.61 72.44 C37.23 74.2, 29.53 72.74, 23.35 70.2 C17.16 67.65, 10.28 63.04, 6.47 57.16 C2.66 51.28, 0.48 42.09, 0.48 34.93 C0.49 27.77, 2.21 19.87, 6.5 14.18 C10.79 8.49, 22.73 2.84, 26.22 0.8 C29.71 -1.24, 27.32 1.4, 27.42 1.94 M18.79 3.51 C24.42 0.46, 35.59 0.43, 42.17 1.81 C48.75 3.19, 53.81 6.62, 58.26 11.8 C62.72 16.97, 67.89 25.63, 68.88 32.87 C69.87 40.1, 67.72 49.16, 64.2 55.21 C60.69 61.26, 53.56 66.39, 47.78 69.16 C42 71.94, 36.14 73.25, 29.54 71.85 C22.95 70.46, 13 65.99, 8.19 60.79 C3.38 55.6, 1.51 47.61, 0.69 40.68 C-0.14 33.75, 0.09 25.25, 3.22 19.21 C6.34 13.16, 16.83 6.72, 19.43 4.43 C22.04 2.14, 18.32 4.81, 18.83 5.45" stroke="none" stroke-width="0" fill="#ffec99"></path><path d="M48.25 3.36 C54.48 5.27, 60.4 10.63, 63.81 16.52 C67.22 22.41, 69.26 31.47, 68.68 38.7 C68.1 45.93, 64.72 54.45, 60.32 59.89 C55.92 65.32, 48.79 69.58, 42.28 71.3 C35.77 73.01, 27.52 72.85, 21.25 70.17 C14.98 67.5, 8.23 61.24, 4.65 55.25 C1.07 49.26, -0.73 41.21, -0.21 34.26 C0.3 27.3, 3.23 19.14, 7.74 13.53 C12.26 7.92, 19.75 2.19, 26.88 0.58 C34.01 -1.03, 46.26 3, 50.52 3.85 C54.79 4.71, 52.7 5.13, 52.47 5.72 M31.39 0.05 C37.55 -0.98, 46.24 2.13, 52.05 6.05 C57.87 9.96, 63.7 17.04, 66.29 23.55 C68.89 30.05, 69.3 38.09, 67.61 45.07 C65.92 52.05, 61.49 60.71, 56.15 65.42 C50.81 70.13, 42.11 73.12, 35.57 73.31 C29.03 73.5, 22.28 70.34, 16.91 66.56 C11.55 62.78, 5.87 57.36, 3.38 50.62 C0.88 43.89, 0.5 33.28, 1.92 26.14 C3.35 19, 6.64 12.08, 11.92 7.77 C17.21 3.46, 29.97 1.55, 33.61 0.28 C37.26 -0.99, 34.01 -0.35, 33.82 0.13" stroke="#1e1e1e" stroke-width="2" fill="none"></path></g><g transform="translate(538.3508121512984 184.19060248669103) rotate(0 11.569992065429688 12.5)"><text x="11.569992065429688" y="0" font-family="Virgil, Segoe UI Emoji" font-size="20px" fill="#1e1e1e" text-anchor="middle" style="white-space: pre;" direction="ltr" dominant-baseline="text-before-edge">V4</text></g><g stroke-linecap="round" transform="translate(595.315988167664 130) rotate(0 35.5 37)"><path d="M18.55 4.84 C23.97 1.11, 33.17 -0.48, 40.02 0.49 C46.88 1.47, 54.77 5.75, 59.69 10.69 C64.6 15.62, 68.19 23.07, 69.53 30.09 C70.86 37.11, 70.57 46.3, 67.69 52.79 C64.8 59.27, 58.34 65.44, 52.2 69 C46.06 72.55, 37.68 75.13, 30.83 74.11 C23.97 73.08, 15.99 67.93, 11.06 62.84 C6.14 57.76, 2.44 50.62, 1.25 43.59 C0.07 36.57, 0.79 27.23, 3.95 20.71 C7.11 14.2, 17.15 7.48, 20.23 4.5 C23.3 1.53, 21.98 2.4, 22.38 2.88 M34.74 -1.2 C41.23 -1.48, 51.25 2.77, 56.89 7.24 C62.52 11.7, 66.68 18.47, 68.55 25.58 C70.42 32.68, 70.28 43.15, 68.13 49.89 C65.99 56.64, 61.12 61.97, 55.69 66.06 C50.26 70.16, 42.49 74.47, 35.56 74.46 C28.62 74.46, 19.64 70.5, 14.09 66.06 C8.53 61.61, 4.06 54.31, 2.23 47.78 C0.4 41.25, 0.85 33.91, 3.12 26.88 C5.38 19.86, 10.51 10.23, 15.81 5.63 C21.11 1.03, 31.85 0.15, 34.93 -0.7 C38.01 -1.55, 34.42 -0.18, 34.29 0.52" stroke="none" stroke-width="0" fill="#ffec99"></path><path d="M40.81 1 C47.21 1.58, 55.54 5.47, 60.49 10.72 C65.44 15.98, 69.54 25.13, 70.51 32.54 C71.49 39.96, 69.49 49.05, 66.35 55.22 C63.2 61.4, 57.71 66.53, 51.63 69.59 C45.55 72.65, 36.74 74.8, 29.88 73.59 C23.02 72.37, 15.5 67.53, 10.45 62.31 C5.41 57.08, 0.69 49.38, -0.39 42.24 C-1.48 35.1, 0.67 25.77, 3.94 19.45 C7.21 13.13, 12.11 7.32, 19.21 4.33 C26.32 1.33, 41.27 1.26, 46.55 1.49 C51.82 1.72, 51.04 5.13, 50.86 5.69 M34.42 0.31 C40.85 -0.17, 51.02 3.77, 56.75 8.22 C62.48 12.66, 66.97 20.31, 68.8 27 C70.63 33.69, 69.6 41.76, 67.73 48.36 C65.87 54.96, 63.23 62.44, 57.61 66.6 C52 70.75, 41.16 73.32, 34.03 73.28 C26.9 73.23, 20.39 70.48, 14.82 66.33 C9.25 62.19, 2.84 55.1, 0.62 48.41 C-1.61 41.73, -0.69 32.93, 1.48 26.23 C3.65 19.53, 7.69 12.32, 13.62 8.2 C19.55 4.07, 33.44 2.81, 37.07 1.48 C40.7 0.14, 35.6 -0.25, 35.4 0.18" stroke="#1e1e1e" stroke-width="2" fill="none"></path></g><g transform="translate(617.263708116694 154.33704909609776) rotate(0 13.449989318847656 12.5)"><text x="13.449989318847656" y="0" font-family="Virgil, Segoe UI Emoji" font-size="20px" fill="#1e1e1e" text-anchor="middle" style="white-space: pre;" direction="ltr" dominant-baseline="text-before-edge">B5</text></g><g stroke-linecap="round" transform="translate(685.315988167664 147) rotate(0 29.5 32)"><path d="M15.38 4.25 C20.32 0.77, 29.08 -0.56, 35.23 0.83 C41.38 2.22, 48.48 7.3, 52.29 12.6 C56.09 17.9, 58.16 25.91, 58.06 32.64 C57.97 39.37, 55.78 47.93, 51.71 53 C47.64 58.06, 39.9 61.93, 33.64 63.04 C27.37 64.14, 19.45 63.28, 14.12 59.62 C8.78 55.97, 3.52 47.7, 1.64 41.12 C-0.24 34.55, 0.2 26.55, 2.83 20.17 C5.47 13.79, 14.8 5.59, 17.43 2.87 C20.07 0.15, 18.46 3.45, 18.63 3.85 M41.8 1.23 C47.24 3.1, 51.93 9.55, 54.76 15.82 C57.6 22.09, 60.14 31.94, 58.82 38.84 C57.51 45.74, 52.15 52.78, 46.9 57.21 C41.64 61.63, 33.61 65.78, 27.31 65.39 C21.01 65, 13.58 59.6, 9.09 54.85 C4.6 50.09, 1.24 43.65, 0.39 36.87 C-0.46 30.09, 0.58 20.14, 4 14.15 C7.42 8.17, 14.61 2.68, 20.94 0.94 C27.26 -0.8, 38.53 3.62, 41.96 3.72 C45.39 3.82, 42.03 1.39, 41.51 1.54" stroke="none" stroke-width="0" fill="#ffec99"></path><path d="M35.82 1.51 C41.76 2.77, 48.49 8.25, 52.43 13.47 C56.38 18.69, 59.62 26.11, 59.5 32.83 C59.38 39.56, 56 48.74, 51.71 53.82 C47.42 58.9, 40.22 62.45, 33.74 63.31 C27.26 64.18, 18.28 62.66, 12.85 59 C7.41 55.33, 3.02 47.79, 1.14 41.33 C-0.73 34.87, -0.81 26.62, 1.58 20.24 C3.98 13.87, 9.65 6.12, 15.5 3.07 C21.35 0.03, 32.83 2.2, 36.67 1.97 C40.51 1.74, 38.54 1.17, 38.55 1.7 M40.83 3.37 C46.67 5.6, 52.39 12.42, 55.06 18.27 C57.74 24.11, 57.89 32.03, 56.88 38.45 C55.88 44.88, 53.98 52.67, 49.03 56.8 C44.07 60.94, 33.64 63.51, 27.14 63.25 C20.65 63, 14.72 59.7, 10.07 55.25 C5.42 50.8, 0.21 43.13, -0.77 36.56 C-1.74 30, 0.87 21.48, 4.21 15.86 C7.55 10.23, 12.98 4.82, 19.28 2.82 C25.57 0.82, 38.51 3.93, 41.98 3.86 C45.44 3.8, 40.47 2.11, 40.08 2.42" stroke="#1e1e1e" stroke-width="2" fill="none"></path></g><g transform="translate(705.8063442261764 166.37258300203047) rotate(0 9.149993896484375 12.5)"><text x="9.149993896484375" y="0" font-family="Virgil, Segoe UI Emoji" font-size="20px" fill="#1e1e1e" text-anchor="middle" style="white-space: pre;" direction="ltr" dominant-baseline="text-before-edge">C1</text></g><g mask="url(#mask-vjDa8Hnh53DZ_ZnZM14WE)" stroke-linecap="round"><g transform="translate(610.0347466238329 624.2920506282198) rotate(0 3.509192203264888 -71.2062991224825)"><path d="M0.74 -1 C1.56 -24.98, 4.81 -119.73, 5.85 -143.3 M-0.33 1.09 C0.75 -22.82, 6.86 -118.53, 7.95 -142.23" stroke="#1e1e1e" stroke-width="2" fill="none"></path></g><g transform="translate(610.0347466238329 624.2920506282198) rotate(0 3.509192203264888 -71.2062991224825)"><path d="M-6.98 -24.78 C-5.61 -17.76, -2.5 -6.87, 0.74 -1 M-6.98 -24.78 C-5.45 -16.89, -3.44 -9.94, 0.74 -1" stroke="#1e1e1e" stroke-width="2" fill="none"></path></g><g transform="translate(610.0347466238329 624.2920506282198) rotate(0 3.509192203264888 -71.2062991224825)"><path d="M10.11 -24.18 C5 -17.29, 1.64 -6.62, 0.74 -1 M10.11 -24.18 C6.53 -16.36, 3.43 -9.58, 0.74 -1" stroke="#1e1e1e" stroke-width="2" fill="none"></path></g><g transform="translate(610.0347466238329 624.2920506282198) rotate(0 3.509192203264888 -71.2062991224825)"><path d="M15.17 -118.3 C10.65 -129.27, 8.1 -136.46, 7.95 -142.23 M15.17 -118.3 C12.49 -124.59, 10.03 -131.91, 7.95 -142.23" stroke="#1e1e1e" stroke-width="2" fill="none"></path></g><g transform="translate(610.0347466238329 624.2920506282198) rotate(0 3.509192203264888 -71.2062991224825)"><path d="M-1.9 -119.25 C0.05 -129.97, 3.97 -136.79, 7.95 -142.23 M-1.9 -119.25 C0.52 -125.37, 3.16 -132.4, 7.95 -142.23" stroke="#1e1e1e" stroke-width="2" fill="none"></path></g></g><mask id="mask-vjDa8Hnh53DZ_ZnZM14WE"><rect x="0" y="0" fill="#fff" width="717.0531310303627" height="866.7046488731849"></rect><rect x="563.373963546336" y="540.5857515057373" fill="#000" width="100.33995056152344" height="25" opacity="1"></rect></mask><g transform="translate(563.373963546336 540.5857515057373) rotate(0 50.470736070880776 12.59866661101114)"><text x="50.16997528076172" y="0" font-family="Virgil, Segoe UI Emoji" font-size="20px" fill="#1e1e1e" text-anchor="middle" style="white-space: pre;" direction="ltr" dominant-baseline="text-before-edge">WS, 8080</text></g><g mask="url(#mask-TtHinGmbL5-QrIE0elqX7)" stroke-linecap="round"><g transform="translate(661.4437174591512 458.82953701351266) rotate(0 340.1861353542564 74.7716297457028)"><path d="M-0.82 -1.01 C112.57 24.09, 567.59 124.32, 681.18 149.58 M0.95 1.08 C114.17 26.47, 567.46 126.53, 680.66 151.14" stroke="#1e1e1e" stroke-width="2" fill="none"></path></g><g transform="translate(661.4437174591512 458.82953701351266) rotate(0 340.1861353542564 74.7716297457028)"><path d="M23.96 -4.3 C13.01 -1.89, 5.52 -1.47, -0.82 -1.01 M23.96 -4.3 C14.89 -2.2, 4.46 -2.47, -0.82 -1.01" stroke="#1e1e1e" stroke-width="2" fill="none"></path></g><g transform="translate(661.4437174591512 458.82953701351266) rotate(0 340.1861353542564 74.7716297457028)"><path d="M20.28 12.4 C10.84 8.6, 4.72 2.8, -0.82 -1.01 M20.28 12.4 C12.47 8.08, 3.47 1.38, -0.82 -1.01" stroke="#1e1e1e" stroke-width="2" fill="none"></path></g><g transform="translate(661.4437174591512 458.82953701351266) rotate(0 340.1861353542564 74.7716297457028)"><path d="M655.88 154.46 C663.46 154.74, 674.45 152.7, 680.66 151.14 M655.88 154.46 C665.84 154.25, 674.51 151.43, 680.66 151.14" stroke="#1e1e1e" stroke-width="2" fill="none"></path></g><g transform="translate(661.4437174591512 458.82953701351266) rotate(0 340.1861353542564 74.7716297457028)"><path d="M659.54 137.75 C665.62 144.24, 675.24 148.43, 680.66 151.14 M659.54 137.75 C668.24 143.96, 675.5 147.59, 680.66 151.14" stroke="#1e1e1e" stroke-width="2" fill="none"></path></g></g><mask id="mask-TtHinGmbL5-QrIE0elqX7"><rect x="0" y="0" fill="#fff" width="1441.815988167664" height="708.3727965049183"></rect><rect x="954.4598699032515" y="521.1011667592154" fill="#000" width="94.3399658203125" height="25" opacity="1"></rect></mask><g transform="translate(954.4598699032513 521.1011667592154) rotate(0 47.16452859342087 12.79357129737275)"><text x="47.16998291015625" y="0" font-family="Virgil, Segoe UI Emoji" font-size="20px" fill="#1e1e1e" text-anchor="middle" style="white-space: pre;" direction="ltr" dominant-baseline="text-before-edge">WS, 10010</text></g><g mask="url(#mask-kMkJGayWNk502T1sPxjC5)" stroke-linecap="round"><g transform="translate(1480.815988167664 191.31103858023647) rotate(0 187 -1.1555192901182352)"><path d="M-1.1 -0.08 C61.1 -0.71, 311.01 -2.9, 373.41 -3.42 M0.52 -1.17 C63.1 -1.72, 313.26 -2.26, 375.81 -2.47" stroke="#1e1e1e" stroke-width="2" fill="none"></path></g><g transform="translate(1480.815988167664 191.31103858023647) rotate(0 187 -1.1555192901182352)"><path d="M22.31 -8.84 C14.81 -7.27, 5.69 -4.71, -1.1 -0.08 M22.31 -8.84 C16.93 -6.71, 12.64 -5.19, -1.1 -0.08" stroke="#1e1e1e" stroke-width="2" fill="none"></path></g><g transform="translate(1480.815988167664 191.31103858023647) rotate(0 187 -1.1555192901182352)"><path d="M22.46 8.26 C14.86 4.42, 5.69 1.59, -1.1 -0.08 M22.46 8.26 C17.03 6.58, 12.7 4.29, -1.1 -0.08" stroke="#1e1e1e" stroke-width="2" fill="none"></path></g></g><mask id="mask-kMkJGayWNk502T1sPxjC5"><rect x="0" y="0" fill="#fff" width="1954.815988167664" height="293.62207716047294"></rect><rect x="1601.3360305870974" y="177.65551929011832" fill="#000" width="132.9599151611328" height="25" opacity="1"></rect></mask><g transform="translate(1601.3360305870974 177.65551929011826) rotate(0 66.83304846661622 11.903827311098553)"><text x="66.4799575805664" y="0" font-family="Virgil, Segoe UI Emoji" font-size="20px" fill="#1e1e1e" text-anchor="middle" style="white-space: pre;" direction="ltr" dominant-baseline="text-before-edge">HTTP, 10022</text></g></svg>